<svg width="26" height="43" viewBox="0 0 26 43" fill="none" xmlns="http://www.w3.org/2000/svg">
<path d="M20.6008 0.667468C20.5774 0.581818 20.7325 0.703373 20.6598 0.557825C20.6868 0.562913 20.714 0.567878 20.741 0.572965C20.7313 0.60971 20.7217 0.646443 20.712 0.683188C20.6749 0.678033 20.6379 0.672867 20.6007 0.667634C20.6008 0.667579 20.6008 0.667523 20.6008 0.667468ZM20.3581 1.07119C20.4329 0.98841 20.5392 1.00671 20.4792 0.869911C20.4556 0.899298 20.4318 0.928586 20.4082 0.957972C20.3849 0.915717 20.3613 0.873366 20.338 0.831251C20.3194 0.837953 20.3008 0.844676 20.2822 0.851238C20.293 0.786026 20.304 0.720726 20.3149 0.655374C20.3253 0.670532 20.3358 0.685927 20.3462 0.701085C20.4249 0.680846 20.4814 0.691687 20.5626 0.719042C20.5622 0.702236 20.5618 0.685542 20.5614 0.668736C20.5897 0.710241 20.6179 0.751795 20.646 0.793223C20.6015 0.800163 20.5518 0.807787 20.5105 0.814339C20.5184 0.928198 20.6305 0.919311 20.6854 0.922016C20.7601 0.92564 20.7259 0.961981 20.7808 0.965771C20.7896 0.966435 20.8062 0.933145 20.8211 0.939449C20.8965 0.971464 21.0322 1.05669 20.9112 1.09589C20.7939 1.02868 20.6603 1.04311 20.5514 0.964039C20.5405 1.06974 20.463 1.07116 20.3581 1.07119ZM22.735 1.83055C22.6774 1.85739 22.6104 1.80435 22.5737 1.74984C22.5737 1.74981 22.5736 1.74978 22.5736 1.74975C22.5655 1.73775 22.5675 1.66719 22.603 1.68673C22.6609 1.71879 22.6466 1.82465 22.7073 1.77663C22.7158 1.79487 22.7257 1.81215 22.735 1.83055ZM22.8674 1.88584C22.8935 1.92563 22.8443 1.98743 22.8072 1.94712C22.8072 1.94718 22.8072 1.94723 22.8072 1.94729C22.7917 1.93045 22.855 1.89305 22.7602 1.91673C22.7665 1.86674 22.7712 1.82077 22.777 1.77226C22.7941 1.77943 22.81 1.78546 22.8279 1.79315C22.7826 1.85898 22.8413 1.84624 22.8674 1.88584ZM20.9915 1.08556C21.0273 1.02404 21.003 1.01315 20.9827 0.949359C21.0205 0.969619 21.0583 0.990024 21.0959 1.01021C21.061 1.03534 21.0264 1.06043 20.9915 1.08556ZM20.0847 0.649172C20.0847 0.649145 20.0846 0.649118 20.0845 0.64909C20.0671 0.653265 20.0496 0.657461 20.0324 0.661572C20.0355 0.635099 20.0387 0.608766 20.0418 0.582293C19.9868 0.582794 19.9316 0.58318 19.8766 0.583822C19.9148 0.516364 19.9901 0.565473 20.0574 0.537323C20.1135 0.589313 20.1263 0.644839 20.1029 0.706182C20.0968 0.687256 20.0909 0.668176 20.0847 0.649172ZM21.58 8.19957C21.5559 8.21194 21.532 8.22442 21.5079 8.23679C21.5238 8.25499 21.5404 8.27101 21.5558 8.29069C21.6479 8.23098 21.6179 8.30791 21.6893 8.33501C21.9084 8.41793 21.9135 8.26066 22.0148 8.54194C21.8657 8.46106 21.8824 8.57881 21.7575 8.605C21.763 8.54317 21.9105 8.4668 21.8599 8.41301C21.7268 8.41891 21.5995 8.42289 21.4639 8.40349C21.4631 8.41425 21.4623 8.42504 21.4615 8.4358C21.483 8.43884 21.5044 8.44177 21.5259 8.44481C21.4941 8.45978 21.4629 8.47474 21.4307 8.48983C21.4828 8.4465 21.4018 8.44643 21.4405 8.38679C21.4578 8.36024 21.5056 8.33458 21.5357 8.31555C21.4978 8.27986 21.4583 8.24487 21.4197 8.20937C21.4538 8.19771 21.4878 8.18601 21.5216 8.17427C21.5411 8.18252 21.5603 8.19091 21.5798 8.19916C21.5799 8.1993 21.58 8.19944 21.58 8.19957ZM17.5097 1.29178C17.5492 1.3795 17.5118 1.48783 17.4129 1.50774C17.4452 1.43572 17.4774 1.3638 17.5097 1.29178ZM20.0843 0.757123C20.0831 0.742879 20.0821 0.72885 20.0809 0.714607C20.119 0.707086 20.1573 0.699785 20.1954 0.692264C20.1856 0.727279 20.176 0.762359 20.1665 0.797311C20.1391 0.783992 20.1117 0.770441 20.0843 0.757123ZM21.9178 1.57089C21.8961 1.56314 21.8947 1.56121 21.871 1.54448C21.8711 1.54452 21.8711 1.54456 21.8711 1.5446C21.8616 1.53807 21.7847 1.47896 21.806 1.45844C21.8488 1.47795 21.894 1.49963 21.9376 1.52003C21.9312 1.53709 21.9239 1.55354 21.9178 1.57089ZM21.4232 1.32169C21.4231 1.32161 21.4231 1.32152 21.4231 1.32144C21.4093 1.31039 21.3983 1.29579 21.3829 1.28689C21.4589 1.2745 21.435 1.34935 21.4967 1.35387C21.5584 1.35824 21.609 1.33443 21.6082 1.4519C21.5849 1.45866 21.5574 1.47106 21.5325 1.47998C21.4763 1.40656 21.4393 1.43358 21.3619 1.4438C21.3823 1.40301 21.4027 1.36248 21.4232 1.32169ZM22.7428 8.40908C22.7016 8.37252 22.756 8.37863 22.7573 8.37725C22.7573 8.37731 22.7574 8.37736 22.7574 8.37742C22.772 8.23094 22.7762 8.40617 22.8392 8.29096C22.8429 8.31421 22.8474 8.33748 22.8513 8.36063C22.8156 8.37691 22.7764 8.3926 22.7428 8.40908ZM24.6592 4.32482C24.6736 4.33017 24.6882 4.33532 24.7027 4.34067C24.6661 4.41049 24.7124 4.45432 24.6347 4.49024C24.6427 4.43503 24.6509 4.37988 24.659 4.32474C24.6591 4.32476 24.6591 4.32479 24.6592 4.32482ZM22.2299 1.84034C22.1384 1.82991 22.0744 1.81425 22.0182 1.73653C22.0182 1.73645 22.0181 1.73637 22.0181 1.73629C22.0149 1.73164 22.0497 1.71243 22.0475 1.70242C22.0297 1.69944 22.0104 1.69857 21.9922 1.69636C22.0009 1.67203 22.0098 1.64776 22.0185 1.62357C22.06 1.65104 22.1015 1.67851 22.1431 1.70605C22.1429 1.68932 22.1425 1.67263 22.1423 1.6559C22.1835 1.66664 22.2246 1.67734 22.2659 1.68807C22.2348 1.72012 22.2037 1.7522 22.1727 1.78447C22.1918 1.80314 22.211 1.82153 22.2299 1.84034ZM23.9513 5.44101C23.9723 5.43557 23.9869 5.47072 24.0091 5.45736C24.0311 5.44391 24.0196 5.39473 24.0585 5.42321C24.052 5.45214 24.0457 5.48278 24.0393 5.51233C24.1568 5.46249 24.127 5.34394 24.2231 5.38728C24.1597 5.45826 24.1395 5.53152 24.1285 5.6238C24.0543 5.58504 24.0262 5.47445 23.9315 5.4915C23.9381 5.47487 23.9446 5.45721 23.9513 5.44127C23.9513 5.44118 23.9513 5.4411 23.9513 5.44101ZM18.4842 1.1668C18.4381 1.13817 18.3116 1.11671 18.2705 1.04366C18.2604 1.02567 18.2757 0.861049 18.2847 0.842591C18.3155 0.780716 18.3813 0.80112 18.3341 0.729372C18.3566 0.739368 18.3793 0.747131 18.4019 0.756349C18.4177 0.712453 18.4333 0.668678 18.4491 0.625C18.4193 0.618736 18.3893 0.612488 18.3594 0.606364C18.3646 0.591825 18.3698 0.577258 18.375 0.562719C18.4719 0.607708 18.4399 0.527256 18.5135 0.500684C18.4791 0.453754 18.4444 0.406786 18.4101 0.359934C18.4353 0.375462 18.4656 0.392427 18.4873 0.407051C18.5238 0.337237 18.4599 0.328061 18.4565 0.310366C18.4374 0.210449 18.6947 0.376731 18.7657 0.283515C18.7272 0.251444 18.6864 0.218638 18.6468 0.186243C18.6657 0.179474 18.6847 0.172775 18.7036 0.166005C18.7719 0.285215 18.8743 0.364006 18.9722 0.464107C18.9843 0.466173 18.9964 0.468172 19.0083 0.470302C19.0202 0.436648 19.0323 0.403196 19.0442 0.369542C19.0621 0.373316 19.0803 0.377214 19.0982 0.380988C19.0009 0.464675 19.0677 0.494142 19.1172 0.59613C19.0573 0.613535 19.0155 0.566461 18.9867 0.637564C19.1573 0.652287 19.2925 0.807547 19.4624 0.813526C19.5045 0.815076 19.5463 0.725478 19.6251 0.772418C19.6177 0.780948 19.6089 0.798492 19.601 0.810579C19.7641 0.834593 19.8628 0.849545 19.991 0.9628C19.9974 0.926602 20.0041 0.890334 20.0106 0.854135C19.9715 0.85541 19.9323 0.856914 19.8935 0.858265C19.8969 0.795079 19.9396 0.786463 19.8452 0.742995C19.7679 0.707341 19.8028 0.752283 19.7745 0.75822C19.736 0.766434 19.7309 0.712483 19.6891 0.722222C19.6569 0.729596 19.6619 0.785397 19.6055 0.745474C19.6569 0.700255 19.7096 0.653419 19.7614 0.607574C19.7704 0.6274 19.7793 0.647369 19.7883 0.667334C19.766 0.675413 19.744 0.683412 19.7217 0.691492C19.788 0.689242 19.8506 0.687165 19.9191 0.684781C19.8627 0.758477 19.9342 0.754437 19.9698 0.759258C20.0253 0.766712 19.9574 0.803844 19.9935 0.809255C20.0297 0.814521 20.0934 0.767379 20.1444 0.807682C20.0966 0.829868 20.123 0.882189 20.0992 0.912153C20.0753 0.942106 20.0112 0.921225 20.0522 0.985283C20.1772 1.00968 20.1159 0.824355 20.2012 0.838913C20.3037 0.856372 20.2273 1.07593 20.1792 1.10829C20.1413 1.13376 20.0714 1.09234 20.0334 1.11759C20.1349 1.2427 20.1948 1.11749 20.2288 1.10339C20.3523 1.05199 20.1856 1.2654 20.3227 1.22412C20.2999 1.26798 20.2797 1.30749 20.2578 1.34952C20.2783 1.34916 20.2944 1.3435 20.3176 1.34646C20.2989 1.23158 20.3458 1.25805 20.3708 1.26958C20.4102 1.28769 20.3694 1.2168 20.3849 1.2107C20.4267 1.19449 20.4649 1.22858 20.4556 1.17747C20.4595 1.20104 20.4643 1.22515 20.4686 1.24873C20.5249 1.24796 20.7201 1.11187 20.5998 1.1015C20.6418 1.03666 20.6594 1.08552 20.6804 1.1082C20.7014 1.13086 20.7216 1.08649 20.7405 1.1053C20.8159 1.18033 20.7213 1.22811 20.6792 1.28058C20.818 1.29581 20.7134 1.214 20.8987 1.26743C20.9379 1.22701 20.8823 1.13825 20.9617 1.14146C20.9347 1.23097 20.9554 1.31402 21.0377 1.38643C21.0559 1.37149 21.0742 1.35637 21.0925 1.34143C21.1083 1.4431 21.0441 1.51108 21.1853 1.46023C21.051 1.61251 21.1394 1.51624 21.1919 1.62841C21.2027 1.65108 21.1451 1.66876 21.1608 1.69876C21.168 1.71231 21.2078 1.69726 21.2249 1.73125C21.2332 1.74798 21.2631 1.84491 21.321 1.8326C21.3296 1.73244 21.4449 1.69772 21.4083 1.5944C21.5289 1.67209 21.6383 1.67321 21.4394 1.72226C21.46 1.76343 21.4807 1.8045 21.5013 1.84553C21.5336 1.8358 21.5661 1.82632 21.5985 1.81681C21.5691 1.8887 21.5564 1.90678 21.6519 1.93642C21.6052 1.93478 21.5586 1.93349 21.5116 1.93192C21.5037 1.94549 21.4913 1.95769 21.4862 1.97207C21.5467 1.96749 21.687 2.01899 21.7285 2.01559C21.7699 2.01218 21.7092 1.97752 21.7271 1.96379C21.8755 1.8509 21.8176 1.95831 21.8859 1.95896C21.926 1.95923 21.8549 1.90585 21.8756 1.90765C21.9522 1.91459 21.9454 2.0083 22.003 2.03649C22.0035 1.98171 22.0045 1.92631 22.0056 1.87135C22.0654 1.90225 22.1332 1.93442 22.1966 1.94644C22.2215 1.95118 22.2204 1.90976 22.225 1.90922C22.2484 1.90611 22.3303 1.92214 22.3381 1.92563C22.3967 1.9527 22.3766 1.99996 22.4322 2.02906C22.408 2.02257 22.3854 2.01631 22.3619 2.00992C22.3167 2.08064 22.2713 2.15127 22.2261 2.22213C22.2792 2.25364 22.3323 2.28505 22.3855 2.31664C22.3565 2.2724 22.3273 2.2282 22.2983 2.18396C22.3905 2.1529 22.4828 2.12169 22.5751 2.09049C22.5908 2.14342 22.6064 2.19627 22.622 2.2492C22.7168 2.2815 22.7697 2.12119 22.7502 2.27419C22.782 2.27538 22.8139 2.27658 22.8456 2.2779C22.833 2.2951 22.8203 2.31236 22.8076 2.32956C22.8451 2.33288 22.8826 2.33626 22.9201 2.33944C22.9179 2.25648 22.918 2.17031 22.9151 2.08948C22.985 2.10436 22.9595 2.16194 22.9623 2.18057C22.9696 2.22992 23.0428 2.20224 23.0463 2.24638C23.0474 2.26149 22.9681 2.27012 22.9691 2.32336C22.9694 2.3337 22.9776 2.53151 23.0476 2.51946C23.0601 2.49017 23.0726 2.45292 23.0851 2.42056C23.1642 2.43626 23.13 2.60365 23.1009 2.64142C23.1525 2.62959 23.2089 2.65298 23.2383 2.61049C23.2581 2.6184 23.2778 2.6263 23.2976 2.63422C23.225 2.73712 23.3151 2.75428 23.3656 2.66016C23.3335 2.64224 23.3015 2.62418 23.2694 2.60626C23.3499 2.49961 23.2825 2.38097 23.441 2.58882C23.4523 2.66918 23.3736 2.54706 23.3848 2.60847C23.429 2.66189 23.4928 2.66437 23.5267 2.73251C23.5688 2.81751 23.4621 2.83036 23.6505 2.8354C23.3852 2.50304 23.7519 2.74215 23.9388 2.76501C23.9044 2.9546 24.0164 3.07211 24.2284 3.11013C24.2307 3.05398 24.1601 3.05042 24.1331 3.01896C24.1062 2.98751 24.1562 2.97695 24.1239 2.9351C24.0916 2.89325 24.0151 2.82111 23.9875 2.76777C24.0364 2.75828 24.2461 2.77977 24.0916 2.7995C24.1588 2.88765 24.1782 2.95501 24.2844 3.01532C24.3516 2.95752 24.3705 2.91076 24.479 2.95893C24.3678 3.03098 24.4568 3.15887 24.3808 3.25145C24.316 3.1913 24.4064 3.10902 24.3852 3.03947C24.383 3.03247 24.3 3.02487 24.2844 3.01532C24.3131 3.14067 24.3218 3.18643 24.2266 3.27506C24.2818 3.28922 24.3069 3.31768 24.3359 3.26768C24.3359 3.29526 24.3359 3.32288 24.3358 3.35037C24.3525 3.35753 24.3683 3.36238 24.3856 3.37098C24.3984 3.28102 24.4224 3.35131 24.4723 3.33116C24.5222 3.31097 24.5067 3.22802 24.5982 3.26982C24.5765 3.23719 24.5561 3.20839 24.5349 3.1772C24.6031 3.18445 24.6716 3.19166 24.7398 3.19892C24.7211 3.13152 24.665 3.01825 24.6971 2.95614C24.713 2.99269 24.8253 2.9941 24.8363 2.99712C24.8786 3.00904 24.8385 3.03891 24.841 3.04129C24.8586 3.05741 24.8767 3.06929 24.8929 3.08062L25.1142 3.20052L25.0076 3.39722C24.985 3.42937 24.9646 3.45366 24.9171 3.45044C24.9226 3.50959 24.8907 3.5373 24.8692 3.58722C24.8574 3.61469 24.9043 3.6302 24.8884 3.6421C24.7829 3.72112 24.7725 3.59393 24.7866 3.84822C24.8291 3.83809 24.8721 3.82863 24.9148 3.81863C24.9157 3.84704 24.9168 3.87535 24.9177 3.90376C24.9049 3.91648 24.8921 3.92905 24.8793 3.94177C24.8124 3.91007 24.7454 3.87823 24.6785 3.84652C24.6669 3.86165 24.6555 3.8769 24.6439 3.89203C24.6509 3.86004 24.6578 3.82799 24.6647 3.796C24.6542 3.78784 24.6435 3.77985 24.6329 3.77169C24.5946 3.80607 24.5561 3.84022 24.5176 3.87453C24.5405 3.88627 24.5637 3.89808 24.5866 3.90982C24.5089 3.99137 24.488 3.98444 24.5093 4.10646C24.4754 4.17697 24.546 4.28028 24.5679 4.34044C24.5479 4.34902 24.5278 4.35753 24.5078 4.36627C24.5228 4.38476 24.5376 4.40331 24.5526 4.4218C24.5169 4.42782 24.4811 4.4341 24.4455 4.4402C24.5019 4.47926 24.5185 4.4936 24.5741 4.43086C24.6386 4.49145 24.545 4.60389 24.495 4.64409C24.4571 4.67458 24.4141 4.60092 24.404 4.60226C24.37 4.6065 24.3622 4.68234 24.3514 4.694C24.3062 4.74347 24.2903 4.78556 24.2518 4.83132C24.2442 4.84019 24.1906 4.84983 24.1882 4.85165C24.1725 4.86725 24.1312 4.90455 24.1281 4.90957C23.9706 5.16804 24.2816 4.9586 24.1446 5.2034C24.1712 5.2066 24.1974 5.21033 24.2239 5.21369C24.2163 5.23349 24.2086 5.25346 24.2011 5.27326C24.1704 5.28852 24.1492 5.24276 24.1549 5.30419C24.1279 5.28776 24.101 5.27132 24.0743 5.25479C24.0798 5.28293 24.0855 5.31026 24.0908 5.33889C23.9765 5.32646 23.8966 5.43895 23.785 5.37607C23.747 5.35468 23.7474 5.24861 23.6838 5.275C23.658 5.30856 23.7169 5.30523 23.7122 5.32165C23.6777 5.43997 23.6148 5.40272 23.6113 5.45602C23.6362 5.47633 23.6615 5.49727 23.6867 5.51788C23.6704 5.531 23.6542 5.54417 23.6378 5.55745C23.655 5.57029 23.672 5.58331 23.6892 5.59616C23.6979 5.58073 23.7076 5.5633 23.7158 5.5492C23.7797 5.60409 23.7247 5.80771 23.6956 5.70663C23.6838 5.6655 23.7197 5.61704 23.617 5.61022C23.6059 5.66643 23.592 5.72955 23.5797 5.7884C23.5602 5.7813 23.5408 5.77407 23.5213 5.76697C23.5 5.84406 23.6052 5.81409 23.6452 5.83297C23.6387 5.84983 23.6319 5.8668 23.6254 5.88367C23.604 5.88211 23.582 5.87982 23.561 5.87886C23.5896 5.89302 23.6523 5.93353 23.6046 5.97058C23.5738 5.99432 23.5241 5.91097 23.5063 5.97539C23.5533 5.99198 23.6182 5.99605 23.6016 6.06933C23.5516 6.05397 23.5043 6.04297 23.4525 6.02501C23.4589 6.12881 23.3688 6.13252 23.3759 6.25414C23.3802 6.33125 23.4586 6.47072 23.2584 6.4256C23.2326 6.46841 23.2845 6.47526 23.2884 6.49335C23.3071 6.57875 23.1991 6.58528 23.1886 6.59463C23.1211 6.65421 23.1352 6.70167 23.0661 6.74358C23.1013 6.756 23.1339 6.76908 23.1679 6.78177C23.1437 6.70241 23.1593 6.67525 23.2067 6.60205C23.2012 6.63146 23.1958 6.66094 23.1903 6.69035C23.2195 6.69881 23.2488 6.70732 23.2779 6.71589C23.2837 6.42357 23.427 6.55945 23.3692 6.77974C23.3105 6.77363 23.2517 6.76821 23.193 6.76187C23.2146 6.91488 23.1224 6.93897 23.0445 7.06411C23.0353 7.07902 23.0375 7.15003 23.0274 7.17538C23.0278 7.17506 23.0282 7.17474 23.0286 7.17442C23.069 7.21207 23.1007 7.20154 23.1445 7.21899C23.1436 7.23486 23.1426 7.25073 23.1417 7.2666C23.0953 7.28127 23.0735 7.25829 23.0537 7.32068C23.0898 7.32788 23.1258 7.3352 23.1618 7.3424C23.1328 7.40732 23.078 7.43302 23.0651 7.50006C23.0576 7.48427 23.05 7.46858 23.0425 7.45279C22.9502 7.56862 22.8087 7.37586 22.8572 7.51871C22.8377 7.51722 22.818 7.5155 22.7985 7.51401C22.8135 7.47149 22.8285 7.42901 22.8434 7.38666C22.8203 7.37485 22.7973 7.36303 22.7741 7.35138C22.7609 7.3981 22.7477 7.44512 22.7344 7.49184C22.7335 7.45277 22.7326 7.4135 22.7317 7.37443C22.6969 7.41953 22.6621 7.46463 22.6273 7.50972C22.7386 7.49663 22.7167 7.57089 22.8083 7.59785C22.6955 7.65372 22.5689 7.67987 22.5643 7.84616C22.5634 7.87916 22.6301 7.89222 22.5211 7.93597C22.6249 7.96162 22.6239 8.0799 22.7202 8.10967C22.7285 8.08056 22.7389 8.05121 22.7458 8.02246C22.7005 8.03768 22.6119 8.00228 22.6075 7.9449C22.602 7.87169 22.7014 7.81513 22.604 7.7738C22.6193 7.7528 22.632 7.73255 22.6463 7.71188C22.6657 7.73223 22.6854 7.75246 22.7049 7.77264C22.6976 7.69135 22.7284 7.65689 22.8027 7.65419C22.7809 7.73674 22.759 7.81906 22.737 7.90155C22.7463 7.89224 22.7557 7.8828 22.7649 7.87342C22.7991 7.95967 22.8848 7.92733 22.8476 8.04094C22.82 8.02719 22.7922 8.01356 22.7644 7.99975C22.8209 8.07388 22.7704 8.18083 22.8724 8.18691C22.8308 8.20691 22.811 8.20568 22.8489 8.24571C22.7435 8.30048 22.6352 8.31662 22.5507 8.24006C22.5518 8.27918 22.5528 8.31834 22.554 8.3573C22.5895 8.35161 22.625 8.34583 22.6605 8.34014C22.6331 8.3945 22.6054 8.44927 22.5781 8.50353C22.4958 8.47145 22.6036 8.38605 22.5171 8.3848C22.4998 8.38453 22.5166 8.42856 22.5049 8.43258C22.3791 8.47395 22.5026 8.37439 22.4243 8.36733C22.3695 8.44665 22.3205 8.39587 22.3015 8.43259L22.4067 8.39449C22.3911 8.38646 22.36 8.3838 22.2967 8.38833C22.3031 8.36319 22.3093 8.33743 22.3159 8.31259C22.2579 8.2838 22.2383 8.3381 22.1834 8.32438C22.149 8.31575 22.1522 8.20579 22.0882 8.25176C22.0766 8.26034 22.0829 8.39951 21.9621 8.33699C21.8683 8.28848 21.9451 8.2281 21.9065 8.17595C21.8679 8.12378 21.6985 8.17799 21.7217 8.03753C21.7411 8.06664 21.7714 8.09164 21.7951 8.11919C21.8187 8.10073 21.8418 8.08237 21.8651 8.06397C21.7818 8.06305 21.728 7.99304 21.6548 8.02906C21.6044 7.89802 21.4636 7.93189 21.4448 8.04442C21.4817 8.04418 21.4692 7.98542 21.4981 8.03268C21.4916 8.05789 21.4853 8.08309 21.4787 8.1083C21.4087 8.07211 21.3589 8.04959 21.4245 7.99408C21.4142 7.98722 21.404 7.98041 21.3938 7.97354C21.3678 8.0238 21.342 8.07435 21.3161 8.1246C21.3002 8.12419 21.2843 8.1237 21.2684 8.12329C21.2589 8.10517 21.2495 8.08691 21.24 8.06858C21.2979 7.99694 21.3332 8.01018 21.2417 7.91222C21.2283 7.94005 21.2148 7.96769 21.2014 7.99552C21.1237 7.91584 21.153 7.84689 21.0334 7.79404C21.1697 7.73937 21.1388 7.93483 21.2297 7.73979C21.2464 7.76325 21.2634 7.78696 21.2802 7.81042C21.2968 7.78378 21.3135 7.75708 21.33 7.73037C21.2007 7.68804 20.9106 7.77883 20.8863 7.61726C20.8694 7.62766 20.8533 7.63609 20.8357 7.64754C20.7902 7.53561 20.6774 7.6864 20.641 7.55213C20.6374 7.53811 20.7283 7.38944 20.6198 7.34549C20.6129 7.36711 20.5982 7.40207 20.5883 7.4288C20.5712 7.40556 20.5545 7.38179 20.5377 7.35834C20.5248 7.37524 20.5116 7.39204 20.4986 7.40909C20.5343 7.43471 20.5699 7.4604 20.6056 7.48602C20.5701 7.47727 20.5343 7.46843 20.4988 7.45969C20.5268 7.51032 20.5458 7.5196 20.4971 7.55696C20.4589 7.54268 20.4206 7.52857 20.3824 7.51429C20.3727 7.52515 20.3629 7.53618 20.3532 7.54704C20.3534 7.59306 20.3542 7.63834 20.3541 7.68493C20.2726 7.60925 20.19 7.56856 20.151 7.46002C20.1443 7.44163 20.2117 7.41331 20.1055 7.41758C20.1163 7.39096 20.1239 7.36877 20.1336 7.34404C19.9949 7.3679 19.9707 7.33007 19.8861 7.22642C19.9338 7.30856 19.8857 7.24714 19.8554 7.26501C19.8346 7.27736 19.884 7.2972 19.8697 7.31363C19.8554 7.32992 19.7573 7.37673 19.8065 7.4109C20.0105 7.3163 19.959 7.51945 20.1625 7.5233C20.1272 7.53128 20.0916 7.53921 20.0563 7.54719C20.0621 7.56653 20.0673 7.58401 20.0737 7.60466C19.994 7.53021 20.0304 7.5714 19.9806 7.57738C19.9307 7.58335 19.8509 7.57092 19.8008 7.55551C19.785 7.55065 19.817 7.52299 19.7851 7.50409C19.7633 7.49118 19.6768 7.51389 19.691 7.44604C19.7002 7.40185 19.8515 7.33909 19.7131 7.27464C19.7053 7.22345 19.766 7.26659 19.7696 7.26256C19.8033 7.22179 19.7346 7.14713 19.6788 7.16417C19.6742 7.16574 19.6883 7.21642 19.6479 7.21482C19.552 7.21124 19.5251 7.14813 19.4995 7.06777C19.4631 7.13095 19.359 7.17801 19.2865 7.11444C19.2734 7.13126 19.2604 7.14835 19.2472 7.16531C19.2649 7.16144 19.2825 7.1577 19.3002 7.15382C19.3089 7.17228 19.3199 7.18791 19.3273 7.20832C19.2353 7.18504 19.181 7.27015 19.125 7.28441C18.9335 7.33299 19.1296 7.13247 19.1739 7.10282C19.1841 7.12798 19.1928 7.1548 19.2024 7.18072C19.2111 7.15687 19.2199 7.13284 19.2289 7.10893C19.0213 7.01268 19.2669 6.94538 19.1817 6.85357C19.1018 6.95367 19.0195 6.92839 18.9546 6.8108C18.9434 6.80626 18.9324 6.80129 18.9212 6.79689C18.9117 6.81249 18.9 6.83763 18.8919 6.84708C18.7644 6.81073 18.8246 6.6272 18.821 6.60549C18.8053 6.5092 18.7193 6.59199 18.7041 6.58598C18.6406 6.56053 18.6436 6.50728 18.5756 6.49896C18.5025 6.49011 18.5298 6.54478 18.4961 6.56655C18.4692 6.58376 18.4171 6.56472 18.3846 6.5804C18.4025 6.56351 18.4211 6.54745 18.4391 6.53048C18.3866 6.47148 18.3458 6.41882 18.2744 6.37702C18.1192 6.48928 18.1673 6.19993 18.0992 6.42101C18.1633 6.46828 18.1917 6.51041 18.2048 6.58097C18.1552 6.56602 18.1058 6.55087 18.0562 6.53591C18.0533 6.50681 18.0541 6.48012 18.0489 6.44943C17.9917 6.48157 17.921 6.42322 17.8828 6.42264C17.7039 6.42001 17.711 6.52389 17.641 6.32215C17.7445 6.35413 17.7759 6.28672 17.868 6.34111C17.8697 6.28329 17.816 6.27033 17.8747 6.22751C17.7748 6.19807 17.7808 6.26365 17.7232 6.29236C17.6734 6.3171 17.6093 6.2898 17.5889 6.34266C17.5957 6.3115 17.6034 6.28192 17.6101 6.2508C17.5496 6.22282 17.4892 6.19457 17.4286 6.16658C17.4681 6.14925 17.5076 6.13186 17.5471 6.11466C17.5328 6.09446 17.5185 6.07428 17.5042 6.05408C17.3129 6.07595 17.135 5.78855 17.0685 6.0373C16.9934 6.01109 16.9979 5.9781 16.9793 5.91643C16.9668 5.93185 16.9559 5.9444 16.9425 5.96179C16.9048 5.92192 16.8387 5.97076 16.8059 5.93467C16.773 5.89871 16.7918 5.83216 16.7373 5.93328C16.7248 5.89112 16.7101 5.85407 16.6968 5.8141C16.67 5.83029 16.6432 5.84622 16.6166 5.86235C16.5976 5.83839 16.5785 5.81446 16.5596 5.7905C16.5231 5.8339 16.4358 5.76697 16.3772 5.78019C16.3615 5.70766 16.4414 5.53985 16.3314 5.52516C16.3143 5.56807 16.2973 5.61084 16.2802 5.65375C16.2624 5.63476 16.2444 5.61578 16.2264 5.59671C16.2314 5.58247 16.2367 5.56831 16.2417 5.55406C16.251 5.56353 16.2601 5.57291 16.2693 5.58252C16.2703 5.5549 16.2715 5.52748 16.2727 5.49994C16.2232 5.51842 16.1737 5.53689 16.124 5.5553C16.1573 5.6024 16.1906 5.64953 16.2239 5.69664C16.1526 5.70064 16.1273 5.65151 16.0618 5.66251C16.0456 5.58471 16.0771 5.55894 16.1239 5.50457C16.1054 5.50242 16.0867 5.5 16.0682 5.49785C16.1081 5.44023 16.0984 5.39029 16.1897 5.43914C16.1916 5.41828 16.193 5.3982 16.1954 5.37672C16.1787 5.37235 16.1758 5.35261 16.1557 5.35161C16.1218 5.34997 16.0755 5.38538 16.0417 5.42203L16.0774 5.52051C16.0551 5.4999 16.0322 5.48396 16.0171 5.47832C16.0106 5.47591 16.0078 5.48035 16.0061 5.48716C16.0235 5.49689 16.0504 5.49453 16.0399 5.51362C16.0236 5.54345 15.997 5.5445 15.9826 5.54847L15.9217 5.51548L15.951 5.46135C15.9486 5.45268 15.9452 5.44838 15.9338 5.4533L15.896 5.52312L15.9745 5.56567C15.9799 5.57819 15.9965 5.60032 16.0308 5.64122C15.9819 5.65581 15.9691 5.64174 15.9496 5.61892L15.8164 5.54677L15.8805 5.42839C15.8906 5.41975 15.9024 5.40979 15.9142 5.39481C15.889 5.38825 15.8641 5.38164 15.8389 5.37492C15.8615 5.3545 15.8841 5.33403 15.9066 5.31361C16.0092 5.40466 16.1416 5.23819 16.1669 5.45563C16.1955 5.40828 16.2241 5.36111 16.253 5.31405C16.2605 5.33001 16.2678 5.34591 16.2752 5.36187C16.2582 5.38129 16.2414 5.40063 16.2246 5.42013C16.2593 5.40417 16.2939 5.38811 16.3286 5.37216C16.3301 5.29679 16.299 5.25239 16.2597 5.19922C16.1874 5.2539 16.2509 5.2547 16.2348 5.31616C16.2025 5.29861 16.1706 5.28689 16.1379 5.26557C16.2206 5.2686 16.215 5.14972 16.222 5.12602C16.2433 5.0539 16.2864 5.13841 16.3088 5.09404C16.3313 5.04962 16.3159 4.97759 16.4003 4.97221C16.3623 4.95525 16.322 4.93996 16.2864 4.92655C16.3069 4.85059 16.3449 4.88541 16.354 4.88084C16.503 4.80927 16.4524 4.70895 16.5048 4.57182C16.4852 4.5832 16.4667 4.59529 16.4478 4.60716C16.4146 4.46971 16.4076 4.54855 16.3405 4.62303C16.3866 4.54538 16.3403 4.46689 16.3469 4.39996C16.3536 4.33305 16.4347 4.25089 16.4788 4.22764C16.4841 4.33056 16.4136 4.40589 16.3829 4.50302C16.4262 4.51057 16.4634 4.51566 16.5106 4.52466C16.456 4.43134 16.525 4.4243 16.5442 4.41098C16.6008 4.37182 16.5308 4.34117 16.6204 4.34344C16.5942 4.33279 16.5723 4.3237 16.5477 4.31384C16.6104 4.20772 16.7117 4.10903 16.6511 3.99251C16.7156 4.01465 16.7771 4.03736 16.8434 4.05911C16.8192 3.99042 16.8854 3.97228 16.8931 3.9276C16.9007 3.88308 16.8441 3.87487 16.8466 3.81953C16.8471 3.8093 16.8866 3.80596 16.8735 3.7741C16.8605 3.74198 16.726 3.58312 16.8801 3.64373C16.8994 3.60428 16.9225 3.56918 16.9432 3.5314C16.9339 3.57332 16.9243 3.61513 16.9151 3.65689C16.9665 3.6415 17.0177 3.62626 17.0691 3.61087C17.0387 3.59162 17.0077 3.57207 16.9776 3.55317C16.979 3.44758 17.0615 3.40905 17.0902 3.3152C17.0949 3.29952 17.0148 3.30427 17.0616 3.24669C17.1084 3.18911 17.2504 3.19655 17.2563 3.06388C17.2565 3.05714 17.1805 2.98148 17.2624 2.97129C17.281 2.96895 17.2844 3.01698 17.3129 3.00501C17.3415 2.99302 17.4004 2.90745 17.4487 2.92117C17.4323 2.91473 17.4132 2.91282 17.3957 2.90806C17.3955 2.88867 17.3954 2.8691 17.3954 2.84961C17.4241 2.86121 17.4529 2.87272 17.4814 2.88426C17.459 2.76266 17.3748 2.66587 17.4731 2.54727C17.4147 2.56623 17.3562 2.58513 17.2978 2.60392C17.3215 2.62768 17.3454 2.65155 17.3691 2.67514C17.3286 2.73205 17.2881 2.78917 17.2476 2.84608C17.2753 2.87151 17.303 2.89672 17.3307 2.92215C17.3187 2.93669 17.307 2.95112 17.2951 2.96566C17.2735 2.95054 17.2521 2.93545 17.2306 2.92017C17.2211 2.95556 17.2117 2.99103 17.2022 3.02625C17.0946 2.8952 17.3005 2.84688 17.1806 2.8012C17.2054 2.79493 17.2304 2.78869 17.2554 2.78249C17.2022 2.74975 17.2324 2.72745 17.2659 2.67895C17.2325 2.67804 17.199 2.67857 17.1658 2.67654C17.2289 2.64364 17.2675 2.55107 17.3074 2.50511C17.3249 2.48492 17.3548 2.52724 17.3628 2.52256C17.4044 2.49877 17.3651 2.39765 17.3773 2.38608C17.4505 2.31688 17.6111 2.32481 17.5656 2.19061C17.4989 2.27595 17.5325 2.22827 17.4673 2.23919C17.4468 2.2426 17.3567 2.351 17.4434 2.20306C17.4537 2.18577 17.6782 1.94874 17.7064 2.07438C17.7049 2.01832 17.6952 1.97044 17.6904 1.91752C17.9262 1.90383 17.733 1.85634 17.6218 1.84037C17.6292 1.8235 17.6356 1.80717 17.6437 1.79C17.7288 1.87432 17.8222 1.69138 17.8001 1.60416C17.7928 1.57501 17.7324 1.61879 17.7398 1.56268C17.7579 1.54277 17.7795 1.52071 17.799 1.49987C17.7177 1.50527 17.7255 1.42362 17.6592 1.39382C17.7388 1.3765 17.8791 1.40042 17.9349 1.45653C17.925 1.40679 17.9151 1.35687 17.905 1.30707C17.8814 1.31694 17.8577 1.32709 17.8341 1.33696C17.932 1.23544 17.9106 1.03603 18.0607 1.07543C18.0672 1.05896 18.0739 1.04237 18.0804 1.0259C18.0594 1.01002 18.0382 0.994294 18.0172 0.97842C18.0714 0.915424 18.1256 0.852654 18.1797 0.789658C18.164 0.86096 18.1901 0.891864 18.1314 0.94691C18.1705 0.933393 18.2099 0.919461 18.2487 0.906439C18.2241 0.770752 18.1831 0.734632 18.2764 0.591314C18.2806 0.58484 18.3954 0.497306 18.4032 0.496106C18.4387 0.490581 18.465 0.536488 18.4824 0.534787C18.5312 0.530225 18.691 0.438705 18.7043 0.448123C18.8664 0.564631 18.654 1.02483 18.605 1.15327C18.0972 2.48547 17.3812 3.68566 16.804 4.97557C16.7982 4.98888 16.8272 4.99541 16.8257 5.00155C16.8159 5.03946 16.759 5.05454 16.7513 5.06663C16.735 5.09251 16.7799 5.09504 16.7705 5.11515C16.6749 5.31833 16.5637 5.50052 16.4739 5.706L16.2272 5.02558C16.2316 5.02749 16.236 5.0294 16.2404 5.0313C16.2541 5.03721 16.2262 5.06097 16.2525 5.06675C16.2661 5.06957 16.3262 5.04117 16.3542 5.05343C16.4521 5.09631 16.5264 5.1492 16.6288 5.19624C16.6848 5.22193 16.7667 5.26504 16.8294 5.29353C16.8571 5.30613 16.8957 5.29835 16.9233 5.31038C16.9624 5.32747 16.9344 5.36678 16.9391 5.37224C16.9597 5.39611 16.9854 5.3506 17.0096 5.36331C17.0547 5.38711 17.0424 5.41979 17.1021 5.44446C17.1448 5.46204 17.252 5.48189 17.3081 5.49922C17.4142 5.5934 17.5762 5.65151 17.6968 5.69318C17.7681 5.71784 17.7538 5.76491 17.7816 5.77775C17.8797 5.82262 17.9803 5.80097 18.0729 5.84209C18.1959 5.8967 18.2864 5.98448 18.4032 6.04238C18.4221 6.05176 18.4366 6.00927 18.4559 6.01702C18.5272 6.04575 18.6195 6.07998 18.6787 6.11471C18.7448 6.15333 18.7428 6.22392 18.8159 6.24357C18.8373 6.24928 18.8672 6.20054 18.9035 6.20945C18.9613 6.22386 18.9982 6.29642 19.0328 6.31879C19.0804 6.34925 19.0608 6.27621 19.1259 6.31522C19.1285 6.31684 19.1212 6.3591 19.1367 6.36418C19.1819 6.37912 19.1914 6.34763 19.2527 6.37972C19.2585 6.38292 19.3248 6.45744 19.333 6.46144C19.3812 6.48472 19.4731 6.54294 19.5054 6.5488C19.6207 6.56985 19.5663 6.47566 19.5964 6.63886C19.6488 6.62691 19.7012 6.61441 19.7556 6.60438C19.7157 6.61879 19.8078 6.70962 19.8167 6.71072C19.8904 6.72035 19.8745 6.65487 19.9522 6.70082C19.7933 6.76049 20.0506 6.76412 20.0993 6.78348C20.3338 6.8766 20.5284 7.00108 20.758 7.10768C20.835 7.14331 20.9487 7.1682 21.0297 7.20676C21.0486 7.21566 21.0221 7.23499 21.0385 7.24334C21.055 7.25151 21.0502 7.21367 21.0684 7.22409C21.1817 7.28945 21.2484 7.38785 21.3888 7.36955C21.3894 7.38197 21.3856 7.38976 21.3892 7.40478C21.5066 7.38447 21.6382 7.54721 21.6969 7.58858C21.7888 7.65316 21.8339 7.62342 21.9028 7.6659C21.9938 7.72218 22.1002 7.87131 22.0986 7.70656C22.1666 7.73324 22.2307 7.76182 22.2915 7.80554C22.2983 7.81043 22.2772 7.84223 22.2798 7.84433C22.2963 7.85804 22.3168 7.83029 22.3302 7.83483C22.3664 7.84717 22.293 7.85752 22.3469 7.87027C22.3754 7.87692 22.4026 7.8571 22.4749 7.89021C22.5205 7.91118 22.5665 7.93248 22.6127 7.95405L21.8611 8.22652C22.0453 7.83152 22.2496 7.41607 22.4399 7.01976C22.4545 6.98935 22.412 6.99398 22.432 6.95666C22.5016 6.82701 22.6687 6.61484 22.7148 6.49654C22.7609 6.37824 22.7004 6.3815 22.7138 6.30022C22.7163 6.28451 22.7386 6.30878 22.7449 6.29643C22.7869 6.21324 22.8769 6.13277 22.9154 6.06744C22.9409 6.02427 22.8958 6.0076 22.9074 5.97479C22.9248 5.92596 22.9911 5.89836 23.0041 5.87409C23.0652 5.75977 23.0676 5.66268 23.1368 5.56164C23.1252 5.56146 23.1151 5.56016 23.104 5.55938C23.1662 5.4305 23.2283 5.30179 23.2905 5.17292C23.2789 5.17495 23.2673 5.17674 23.2556 5.1787C23.3315 5.02888 23.4179 5.09044 23.2121 5.01047C23.2103 4.99612 23.2076 4.98058 23.2061 4.96699C23.3068 5.01937 23.4251 4.96258 23.506 4.85777C23.512 4.8501 23.4388 4.74561 23.5542 4.80727C23.5323 4.7787 23.5165 4.7604 23.497 4.73578C23.5444 4.72779 23.5916 4.71927 23.6389 4.71122C23.6398 4.69535 23.641 4.67938 23.6419 4.66351C23.6196 4.65067 23.5948 4.64093 23.574 4.62598C23.5996 4.56226 23.6878 4.44836 23.7078 4.39793C23.7574 4.27259 23.7527 4.11919 23.8648 4.05612C23.8795 4.00672 23.8125 4.03126 23.8504 3.9653C23.8771 3.96833 23.9026 3.97137 23.9301 3.9744C23.8534 3.87009 23.9215 3.88768 23.979 3.82085C24.018 3.77569 24.0088 3.72985 24.0368 3.68263C24.044 3.67067 24.0734 3.68659 24.0764 3.67755C24.0867 3.64733 24.0835 3.54582 24.0919 3.52499C24.1582 3.35803 24.2273 3.21699 24.3066 3.06923L24.5649 3.78166C24.5453 3.77116 24.5256 3.76049 24.5058 3.74961C24.4875 3.73968 24.4979 3.78094 24.479 3.77056C24.4486 3.7539 24.4885 3.71668 24.4714 3.70594C24.4236 3.67623 24.4006 3.72439 24.3287 3.69387C24.0922 3.59331 23.8417 3.43186 23.6002 3.31491C23.5926 3.31136 23.5798 3.3399 23.5714 3.33632C23.517 3.31253 23.4804 3.24875 23.4314 3.22631C23.35 3.18894 23.2705 3.20023 23.1905 3.16262C23.034 3.08925 22.9037 3.00344 22.7432 2.927C22.6119 2.86437 22.4957 2.81461 22.3513 2.74687C21.7205 2.45105 21.0345 2.23968 20.4215 1.89461C20.406 1.88578 20.4243 1.86384 20.4188 1.86261C20.3669 1.8515 20.3469 1.88331 20.3633 1.80479C20.297 1.79078 20.2533 1.83509 20.183 1.79754C20.1454 1.77757 20.2127 1.70865 20.1278 1.72068C20.0511 1.73158 20.0948 1.80703 19.9417 1.6792C19.9377 1.67577 19.9384 1.61493 19.896 1.611C19.8534 1.60687 19.8788 1.66257 19.7859 1.6323C19.5679 1.56112 19.3271 1.39561 19.0812 1.2968C19.0657 1.29061 18.9085 1.24975 18.8741 1.24876C18.8076 1.24694 18.8017 1.28964 18.7256 1.26519C18.6669 1.24626 18.6409 1.18259 18.5717 1.16052C18.5636 1.15799 18.5306 1.19549 18.4842 1.1668ZM21.3012 8.17181C21.2677 8.20811 21.1699 8.35363 21.1103 8.26757C21.1047 8.25944 21.1971 8.1711 21.1599 8.13278C21.2095 8.14209 21.2543 8.15856 21.3013 8.17164C21.3013 8.1717 21.3012 8.17175 21.3012 8.17181ZM18.5976 3.54282e-06C18.6552 0.0365381 18.713 0.0730972 18.7706 0.109632C18.7194 0.108838 18.6682 0.107978 18.6172 0.107402C18.6106 0.0715914 18.6042 0.0358144 18.5976 3.54282e-06ZM24.446 4.69256C24.446 4.6925 24.446 4.69244 24.4461 4.69238C24.4362 4.76625 24.4263 4.84017 24.4164 4.91404C24.4047 4.9003 24.3929 4.88651 24.3812 4.87277C24.3815 4.81094 24.3818 4.7491 24.3821 4.68743C24.4034 4.68915 24.4247 4.69084 24.446 4.69256ZM24.5262 4.10999C24.5632 4.07717 24.5883 4.10121 24.628 4.09221C24.628 4.09218 24.6279 4.09216 24.6278 4.09213C24.6382 4.0897 24.6579 4.065 24.664 4.05479C24.6435 4.05 24.6226 4.04648 24.602 4.04209C24.6016 3.92497 24.8503 3.81265 24.8015 4.08586C24.7796 4.07118 24.7577 4.05671 24.7358 4.04203C24.6859 4.16582 24.5717 4.2764 24.5262 4.10999ZM20.2989 7.78574C20.1597 7.81487 20.119 7.81572 20.0188 7.70423C20.0468 7.69057 20.0747 7.67691 20.1026 7.66326C20.1128 7.69527 20.1229 7.72706 20.133 7.75907C20.1331 7.7591 20.1332 7.75913 20.1332 7.75915C20.1483 7.7376 20.1635 7.71602 20.1784 7.69439C20.2185 7.72481 20.2588 7.75532 20.2989 7.78574ZM21.6879 1.66092C21.7314 1.49303 21.6977 1.58668 21.796 1.59023C21.8301 1.59142 21.815 1.55145 21.8348 1.55522C21.9417 1.57528 21.9009 1.68233 21.8544 1.72622C21.7987 1.70461 21.7426 1.68242 21.688 1.661C21.688 1.66097 21.6879 1.66095 21.6879 1.66092ZM19.1975 0.534876C19.1975 0.534848 19.1974 0.534821 19.1973 0.534793C19.2125 0.495961 19.2557 0.503822 19.229 0.447834C19.262 0.463414 19.2948 0.479152 19.3279 0.494809C19.3165 0.493767 19.305 0.492465 19.2937 0.491424C19.2962 0.508377 19.2987 0.525506 19.3012 0.542459C19.3332 0.50464 19.3323 0.534907 19.3602 0.56561C19.3723 0.51487 19.3844 0.464119 19.3965 0.413379C19.4303 0.446001 19.4643 0.47874 19.4981 0.511361C19.4931 0.523251 19.4882 0.535164 19.4832 0.547053C19.5054 0.539259 19.5274 0.53123 19.5496 0.523435C19.5472 0.539283 19.5447 0.554935 19.5424 0.570783C19.5656 0.568813 19.5889 0.566864 19.6122 0.564754C19.602 0.601076 19.5548 0.596754 19.6304 0.621681C19.5923 0.645993 19.5542 0.670222 19.5159 0.694457C19.4097 0.641356 19.3036 0.588118 19.1975 0.534876ZM22.4563 1.96254C22.3349 1.91362 22.3797 1.90478 22.4429 1.84112C22.4473 1.88157 22.4519 1.92209 22.4563 1.96254ZM23.2041 7.02788C23.2402 7.08663 23.2757 7.14528 23.3096 7.204C23.3059 7.28763 23.1781 7.31317 23.1654 7.24307C23.1504 7.15875 23.2314 7.11594 23.2041 7.02788ZM22.206 8.57421C22.2803 8.63847 22.1708 8.66275 22.1345 8.68985C22.138 8.62069 22.1026 8.61036 22.0527 8.57877C22.1043 8.59832 22.1938 8.56348 22.2061 8.57404C22.2061 8.5741 22.206 8.57415 22.206 8.57421ZM23.9076 5.67691C23.9221 5.64185 23.9235 5.60089 23.9556 5.57848C24.0011 5.61108 23.927 5.65125 24.0215 5.64193C24.0125 5.66448 24.0034 5.68704 23.9946 5.70948C23.9705 5.6813 23.9389 5.68921 23.9078 5.6769C23.9077 5.6769 23.9077 5.6769 23.9076 5.67691ZM23.6308 2.44039C23.6705 2.53096 23.6951 2.51167 23.7821 2.5025C23.7692 2.55506 23.6506 2.59774 23.5916 2.59176C23.6047 2.54134 23.6178 2.49088 23.6308 2.44039ZM17.2384 2.26027C17.2921 2.30512 17.2443 2.42819 17.1984 2.47901C17.1926 2.46769 17.1867 2.4563 17.1808 2.44492C17.2 2.38345 17.2192 2.32174 17.2384 2.26027ZM22.0293 8.56281C22.0374 8.56876 22.0452 8.57404 22.0527 8.57877C22.0435 8.5753 22.0355 8.57027 22.0293 8.56281ZM18.5671 6.61869C18.6224 6.57412 18.5476 6.51545 18.6388 6.58575C18.6389 6.58569 18.6389 6.58563 18.6389 6.58558C18.6993 6.632 18.7123 6.64294 18.7726 6.67664C18.7154 6.74036 18.5764 6.70765 18.7437 6.80463C18.746 6.80577 18.7621 6.75946 18.7872 6.77855C18.7949 6.78445 18.8055 6.83359 18.8424 6.86373C18.8544 6.87344 18.9509 6.93223 18.8119 6.86804C18.7918 6.92172 18.7598 6.97061 18.7367 7.02096C18.6757 7.01022 18.6815 6.88943 18.6231 6.86512C18.5362 6.82928 18.445 6.91149 18.4916 6.76942C18.5785 6.76984 18.7017 6.82649 18.6798 6.91482C18.7486 6.94817 18.7994 6.89123 18.759 6.83237C18.5006 6.76221 18.7394 6.70337 18.5054 6.65837C18.4942 6.6759 18.4762 6.692 18.4693 6.71018C18.4362 6.61452 18.5474 6.63465 18.5671 6.61869ZM18.9998 6.99539C18.9401 7.01559 18.8803 7.03617 18.8206 7.05659C18.8507 6.99219 18.9005 6.94501 18.9825 6.93917C18.9882 6.95793 18.9941 6.97677 18.9998 6.99539ZM16.1117 4.99839C16.0795 4.97606 16.0548 4.94521 16.0269 4.91806C16.0623 4.91932 16.2297 4.63537 16.1879 4.80012C16.1819 4.82406 16.0573 4.92904 16.1117 4.99839ZM23.1384 2.27429C23.1624 2.31415 23.1863 2.35398 23.2101 2.39376C23.1495 2.38356 23.0887 2.37374 23.028 2.36382C23.0648 2.33401 23.1015 2.3041 23.1384 2.27429ZM22.876 7.56893C22.8843 7.55476 22.9094 7.62639 22.9291 7.56459C22.9396 7.62242 22.9466 7.67528 22.9557 7.73127C22.927 7.73332 22.8983 7.73556 22.8696 7.73761C22.8796 7.75436 22.8894 7.77126 22.8994 7.78801C22.869 7.76654 22.839 7.74609 22.8082 7.72403C22.9128 7.68582 22.8398 7.63168 22.876 7.56893ZM23.7409 5.38237C23.819 5.40325 23.8135 5.52685 23.8726 5.4304C23.911 5.47189 23.9213 5.51457 23.8976 5.57615C23.875 5.57724 23.8526 5.57837 23.83 5.57946C23.8779 5.60347 23.8887 5.62724 23.9076 5.67691C23.9075 5.67691 23.9075 5.67691 23.9074 5.67692C23.8685 5.76918 23.8549 5.7562 23.765 5.74069C23.8548 5.66581 23.7833 5.62887 23.7706 5.54322C23.7619 5.48438 23.8028 5.43206 23.7409 5.38237ZM15.9644 5.31544C15.9353 5.21912 15.85 5.25343 15.971 5.16333C15.9828 5.17833 15.9945 5.1933 16.0064 5.20829C15.9925 5.24408 15.9785 5.27978 15.9644 5.31544ZM24.1447 5.16323C24.0294 5.11876 23.9127 5.14197 24.0892 5.23785C24.1553 5.19291 24.0382 5.17517 24.1447 5.16323ZM22.317 8.41308C22.3474 8.42895 22.3644 8.44846 22.3716 8.46935C22.425 8.45091 22.4811 8.48744 22.5162 8.53303L22.4367 8.67984L22.3062 8.60916C22.2958 8.61721 22.2849 8.62416 22.274 8.62968C22.2771 8.6032 22.2803 8.57669 22.2835 8.55044C22.2577 8.55103 22.2318 8.55165 22.2061 8.5521C22.243 8.5058 22.28 8.45937 22.317 8.41308ZM24.4913 3.07889C24.6201 3.04197 24.4133 2.98836 24.5005 2.96848C24.5701 2.95256 24.5998 3.06435 24.5508 3.10279C24.5325 3.09593 24.5123 3.08771 24.4915 3.07898C24.4914 3.07895 24.4914 3.07892 24.4913 3.07889ZM24.7845 3.53567C24.8767 3.5605 24.8418 3.57054 24.8602 3.4911C24.8655 3.46842 24.9743 3.31938 24.8715 3.35521C24.844 3.41381 24.8138 3.47515 24.7845 3.53567ZM20.8751 7.89037C20.8914 7.85276 21.0558 7.83039 21.0624 7.85835C21.0625 7.85829 21.0625 7.85823 21.0625 7.85818C21.0803 7.93419 20.9434 7.87976 20.9655 7.983C20.8689 7.85607 20.7548 8.00037 20.8637 7.79082C20.9434 7.81671 20.8871 7.84407 20.8751 7.89037ZM18.1461 0.775107C18.1461 0.775048 18.1462 0.774989 18.1462 0.774931C18.1405 0.782595 18.0533 0.827002 18.0385 0.809681C18.0939 0.733214 18.1228 0.764955 18.1005 0.659172C18.1215 0.663757 18.1416 0.668689 18.1628 0.67301C18.1596 0.709314 18.1743 0.737181 18.1461 0.775107ZM16.3369 4.71205C16.3321 4.74747 16.2656 4.785 16.2515 4.82129C16.1495 4.63711 16.356 4.5707 16.3369 4.71205ZM20.3577 1.07124C20.3578 1.07122 20.358 1.07121 20.3581 1.07119C20.358 1.07126 20.3579 1.07133 20.3579 1.0714C20.3578 1.07135 20.3578 1.07129 20.3577 1.07124ZM17.5826 6.37465C17.5833 6.36276 17.5851 6.353 17.5879 6.34498C17.5882 6.34426 17.5885 6.34355 17.5889 6.34283C17.5866 6.35322 17.5845 6.36378 17.5826 6.37465ZM20.6074 7.77876C20.579 7.70242 20.7927 7.70217 20.8402 7.74831C20.8252 7.77007 20.8146 7.79119 20.7927 7.81399C20.7755 7.73144 20.6121 7.79158 20.6074 7.77876ZM23.5362 6.22748C23.47 6.36536 23.3501 6.0895 23.5165 6.15832C23.5195 6.16008 23.5376 6.22378 23.5362 6.22748ZM21.7099 8.26849C21.7741 8.22316 21.7108 8.17355 21.8193 8.2373C21.8184 8.25641 21.8174 8.27555 21.8165 8.29466C21.781 8.28591 21.7454 8.27724 21.7099 8.26849ZM22.8434 7.00951C22.7963 7.19998 22.7791 7.39516 23.0027 7.36139C23.0034 7.34563 23.0044 7.32977 23.0051 7.31401C22.9228 7.2731 22.991 7.24566 23.0271 7.17565C22.9988 7.15004 23.0097 7.10694 22.9851 7.08639C22.9375 7.04666 22.8781 7.07422 22.8434 7.00951ZM21.2076 1.66546C21.2171 1.65258 21.2265 1.63958 21.2359 1.62684C21.271 1.62371 21.3061 1.62069 21.3411 1.61756C21.3239 1.64273 21.3067 1.66789 21.2895 1.69306C21.2622 1.68389 21.2351 1.6748 21.2078 1.66563C21.2077 1.66557 21.2077 1.66552 21.2076 1.66546ZM19.2519 6.89934C19.1629 7.04825 19.2317 7.04535 19.3809 7.01886C19.338 6.97905 19.2948 6.93915 19.2519 6.89934ZM24.2176 4.23748C24.2637 4.25463 24.3097 4.27177 24.3558 4.28875C24.3375 4.2075 24.2814 4.19478 24.2093 4.19584C24.212 4.20978 24.2149 4.22354 24.2176 4.23748ZM24.6004 3.37006C24.5796 3.39045 24.6213 3.39461 24.6194 3.39686C24.5713 3.45062 24.5507 3.45174 24.5418 3.54115C24.5468 3.55497 24.5524 3.56885 24.5577 3.5828C24.6673 3.59084 24.6287 3.54134 24.7185 3.49181C24.6802 3.49042 24.642 3.48895 24.6036 3.48749C24.6299 3.44888 24.656 3.4104 24.6823 3.3718C24.6747 3.36224 24.6673 3.35271 24.6598 3.34315C24.6402 3.35209 24.6188 3.36077 24.6004 3.37006ZM20.9077 1.47589C20.8688 1.45323 20.8297 1.43034 20.7908 1.40768C20.7786 1.42991 20.7664 1.45231 20.7542 1.47453C20.8053 1.47497 20.8566 1.47546 20.9077 1.47589ZM18.3846 6.5804C18.3776 6.58702 18.3706 6.59373 18.3639 6.60074C18.3689 6.59073 18.3762 6.58446 18.3846 6.5804ZM18.322 0.726754C18.3595 0.688195 18.3801 0.616899 18.4071 0.567955C18.3477 0.545027 18.3035 0.680869 18.2476 0.709653C18.2545 0.721725 18.3061 0.743068 18.322 0.726754ZM22.4027 8.35901C22.3794 8.33404 22.3563 8.30914 22.3329 8.28433C22.349 8.25787 22.3654 8.23143 22.3816 8.20481C22.3585 8.193 22.3352 8.18111 22.3121 8.16929C22.2848 8.30722 22.2304 8.24703 22.135 8.277C22.2242 8.30425 22.3133 8.3317 22.4027 8.35901ZM19.5456 1.02017C19.6424 1.04607 19.688 1.03122 19.6706 0.937219C19.6315 0.938634 19.5922 0.939977 19.5531 0.941392C19.5507 0.967667 19.5482 0.99397 19.5456 1.02017ZM16.7826 5.7662C16.6956 5.75755 16.7386 5.66243 16.6408 5.68104C16.6718 5.71678 16.7026 5.75271 16.7334 5.78837C16.7497 5.78097 16.7663 5.7736 16.7826 5.7662ZM20.5702 7.22181C20.554 7.17417 20.4219 7.30292 20.3873 7.14604C20.35 7.1706 20.3214 7.1973 20.2874 7.22255C20.294 7.1809 20.2994 7.13812 20.3064 7.09699C20.3063 7.09696 20.3063 7.09693 20.3062 7.09691C20.22 7.07166 20.2506 7.14208 20.2306 7.18018C20.2222 7.19592 20.1751 7.14101 20.1773 7.18488C20.1813 7.26026 20.3178 7.28186 20.2838 7.35556C20.2527 7.31175 20.1608 7.29321 20.1623 7.35369C20.1638 7.42006 20.2838 7.36621 20.3124 7.43407C20.2965 7.28332 20.4261 7.38822 20.4005 7.48629C20.519 7.45722 20.4531 7.39195 20.3635 7.35393C20.4496 7.30994 20.3529 7.31024 20.3668 7.24664C20.4385 7.23789 20.6155 7.35594 20.5702 7.22181ZM23.1552 6.27024C23.1318 6.33179 23.0488 6.40617 23.0881 6.47419C23.1111 6.51381 23.181 6.43303 23.2043 6.52223C23.2262 6.46186 23.2115 6.43888 23.1601 6.42689C23.1607 6.41105 23.1614 6.39512 23.1621 6.37936C23.1741 6.37752 23.1861 6.37547 23.198 6.37364C23.182 6.3577 23.1662 6.34178 23.1501 6.326C23.1604 6.31375 23.1709 6.30134 23.1814 6.28916C23.1725 6.28298 23.1654 6.27623 23.1552 6.27024ZM16.7345 4.11381C16.7274 4.13057 16.7203 4.14718 16.7133 4.16402C16.7255 4.16754 16.7384 4.17092 16.7511 4.17432C16.761 4.17716 16.771 4.17999 16.781 4.18283C16.7434 4.17692 16.6516 4.22983 16.6715 4.27949C16.6814 4.30444 16.762 4.29597 16.74 4.37172C16.7607 4.31904 16.7743 4.26762 16.7922 4.21543C16.8088 4.22864 16.8257 4.24176 16.8423 4.25497C16.8424 4.25496 16.8424 4.25494 16.8424 4.25492C16.8544 4.24039 16.8666 4.22576 16.8786 4.21122C16.8305 4.17869 16.7825 4.14634 16.7345 4.11381ZM24.1072 4.24479C24.1175 4.31826 24.1278 4.34603 24.1995 4.34721C24.1996 4.34716 24.1996 4.34712 24.1997 4.34707C24.1832 4.3138 24.1667 4.28053 24.1503 4.24726C24.1359 4.2464 24.1216 4.24549 24.1072 4.24479ZM17.9912 6.15763C17.7661 6.32701 18.1003 6.31497 18.0849 6.21418C18.0842 6.20959 17.9908 6.18777 17.9912 6.15763ZM22.3274 8.33347C22.3576 8.34559 22.3878 8.35788 22.4181 8.37009L22.2771 8.42118C22.2786 8.41762 22.28 8.41407 22.2814 8.41051C22.2673 8.40808 22.2531 8.40569 22.239 8.40331L22.4359 8.33191C22.4388 8.31482 22.4417 8.29773 22.4446 8.28064C22.4056 8.29821 22.3665 8.3159 22.3274 8.33347ZM19.8867 1.30445C19.8923 1.3825 19.9706 1.44645 20.0454 1.39946C20.0263 1.38092 20.0072 1.36237 19.9881 1.34384C20.0348 1.35626 20.0814 1.36768 20.1282 1.38068C20.1709 1.29557 20.0974 1.32217 20.0333 1.26318C20.0234 1.25389 19.9989 1.11203 19.9355 1.18063C19.9225 1.19478 19.9965 1.24315 19.9189 1.26556C19.9412 1.28063 19.9624 1.28952 19.9842 1.30228C19.9762 1.32358 19.9683 1.3449 19.9605 1.36628C19.9358 1.34567 19.9113 1.32506 19.8867 1.30445ZM22.9999 6.61953C22.957 6.69897 22.9867 6.72516 23.0396 6.77064C23.0505 6.72944 23.0615 6.68828 23.0723 6.64708C23.0482 6.638 23.0242 6.62867 22.9999 6.61953ZM20.6074 1.6657C20.6474 1.69657 20.6514 1.63807 20.6738 1.63707C20.7584 1.63347 20.7883 1.69058 20.8658 1.69982C20.8569 1.70729 20.8486 1.71431 20.84 1.72158C20.8401 1.72161 20.8401 1.72164 20.8402 1.72167C21.1388 1.91228 21.0243 1.72173 20.8253 1.65094C20.8295 1.63044 20.8338 1.60999 20.8379 1.58962C20.7377 1.58196 20.6446 1.57619 20.6074 1.6657ZM19.0583 6.64749C19.0601 6.63426 19.1253 6.57544 19.0513 6.58263C18.9553 6.66814 19.0554 6.65025 19.055 6.70021C19.0345 6.70314 19.0138 6.70562 18.9935 6.70862C19.0731 6.78273 19.0987 6.7637 19.1011 6.66953C19.1011 6.66313 19.0566 6.66069 19.0583 6.64749ZM18.4667 6.30639C18.3801 6.45798 18.5316 6.44248 18.5502 6.39154C18.5347 6.38194 18.5096 6.40269 18.4977 6.38278C18.4858 6.36278 18.4985 6.32387 18.4667 6.30639ZM21.8396 7.93145C21.8364 7.92913 21.8326 7.84658 21.8118 7.90006C21.7974 8.04297 21.9212 8.00459 21.926 7.95474C21.8963 7.94341 21.8686 7.95287 21.8396 7.93129C21.8396 7.93134 21.8396 7.9314 21.8396 7.93145ZM19.3306 1.08958C19.3302 1.09475 19.4047 1.16204 19.4275 1.14256C19.4497 1.11905 19.4683 1.09137 19.4887 1.06579C19.4283 1.0701 19.3409 1.00441 19.3308 1.08966C19.3307 1.08963 19.3307 1.0896 19.3306 1.08958Z" fill="black"/>
<path d="M2.00503 33.9742C1.86283 34.1185 2.17317 33.5598 1.90226 33.9005C1.93349 33.8176 1.96476 33.7342 1.99599 33.6513C2.03936 33.6469 2.08288 33.642 2.12626 33.6375C2.086 33.7496 2.04571 33.8617 2.0052 33.9743C2.00514 33.9742 2.00508 33.9742 2.00503 33.9742ZM2.36082 34.3194C2.31021 34.1757 2.43073 33.851 2.18351 34.1471C2.20411 34.1894 2.22441 34.2324 2.24502 34.2748C2.21462 34.3145 2.18417 34.3543 2.15372 34.3941L2.02745 34.652L2.29463 34.7828C2.2949 34.783 2.29516 34.7832 2.29543 34.7834L2.12875 34.5517C2.12042 34.6337 2.11212 34.7158 2.10385 34.7976C2.12302 34.8423 2.14219 34.8869 2.16121 34.9316C2.10473 34.9977 2.04802 35.0634 1.99138 35.1295C1.99465 35.0762 1.99799 35.0221 2.00126 34.9687C1.95359 34.8411 1.92204 34.7209 1.89467 34.5785L2.19558 34.9968C2.19528 34.9967 2.19497 34.9966 2.19466 34.9965L1.71191 34.7601L1.94006 34.2942C1.96943 34.2166 2.00377 34.1335 2.0441 34.0391C2.01994 34.0552 1.99588 34.0714 1.97173 34.0875C2.0557 33.9685 2.13969 33.8495 2.2234 33.731C2.19362 33.854 2.16019 33.9915 2.13271 34.1055C2.30103 33.9812 2.3882 33.6638 2.4409 33.5021C2.51261 33.2818 2.53357 33.349 2.58788 33.186C2.5966 33.16 2.56423 33.1415 2.58648 33.0924C2.69894 32.8451 2.94042 32.3755 2.88824 32.6918C2.68862 33.0921 2.59011 33.467 2.38114 33.8536C2.52121 33.791 2.45419 34.0148 2.36082 34.3194ZM5.55275 26.7432C5.53946 26.8866 5.40469 27.1282 5.29481 27.2833C5.29472 27.2835 5.29463 27.2837 5.29454 27.2838C5.27035 27.318 5.1722 27.3749 5.23152 27.2544C5.32842 27.0579 5.46563 27.0052 5.45166 26.8718C5.48513 26.8306 5.5184 26.7866 5.55275 26.7432ZM5.74897 26.3095C5.82854 26.1985 5.87229 26.2862 5.78218 26.4297C5.78224 26.4298 5.78229 26.4298 5.78235 26.4298C5.74473 26.4897 5.74813 26.3392 5.69727 26.5933C5.63206 26.6195 5.57109 26.6469 5.50754 26.6733C5.53296 26.6171 5.55564 26.5657 5.58248 26.5068C5.63542 26.5796 5.6696 26.4207 5.74897 26.3095ZM2.94514 32.4678C2.88988 32.4186 2.85279 32.4989 2.74439 32.6145C2.80675 32.4867 2.86927 32.3589 2.93137 32.2317C2.9359 32.3106 2.94061 32.3888 2.94514 32.4678ZM2.16241 35.8152C2.16243 35.8154 2.16245 35.8157 2.16248 35.8159C2.17888 35.8609 2.19534 35.906 2.21152 35.9505C2.18955 35.981 2.16765 36.0112 2.14568 36.0417C2.188 36.2026 2.23042 36.3642 2.27289 36.5251C2.19382 36.514 2.17271 36.219 2.10052 36.0635C2.09613 35.8204 2.12744 35.6994 2.19073 35.6763C2.18133 35.7224 2.17174 35.7685 2.16241 35.8152ZM21.7221 8.05972C21.781 8.06365 21.8394 8.06727 21.8983 8.0712C21.8361 8.03133 21.7735 7.9938 21.7115 7.95227C21.4972 7.95483 21.5157 7.87253 21.2842 7.77056C20.5746 7.4581 20.6996 7.67627 20.1553 7.1877C20.6601 7.43501 20.5067 7.25331 20.8461 7.32744C20.8849 7.41006 20.525 7.38701 20.7195 7.50817C21.1008 7.61836 21.4667 7.72602 21.8776 7.87423C21.8704 7.85971 21.8632 7.84518 21.856 7.83066C21.7908 7.80719 21.7261 7.784 21.6609 7.76053C21.7398 7.76761 21.817 7.77418 21.8971 7.78149C21.7846 7.79651 22.0198 7.86873 21.9604 7.91872C21.9339 7.94097 21.818 7.93474 21.7477 7.93496C21.8893 8.0192 22.0353 8.10398 22.1787 8.18857C22.0903 8.1748 22.002 8.16108 21.9142 8.14757C21.8503 8.11854 21.787 8.08954 21.7232 8.06052C21.7228 8.06025 21.7224 8.05998 21.7221 8.05972ZM6.93695 39.2112C7.07083 39.0359 7.38031 38.8181 7.59127 38.7766C7.37299 38.9215 7.15522 39.0663 6.93695 39.2112ZM2.2426 35.6545C2.23295 35.6793 2.22336 35.7034 2.21372 35.7282C2.17906 35.6274 2.14449 35.526 2.10983 35.4253C2.14317 35.4014 2.17647 35.377 2.20959 35.3525C2.22062 35.4529 2.23157 35.5541 2.2426 35.6545ZM4.45731 29.3468C4.42701 29.4167 4.42309 29.4223 4.37828 29.506C4.37836 29.5059 4.37843 29.5058 4.3785 29.5057C4.36084 29.539 4.20863 29.8149 4.19848 29.7714C4.26422 29.6298 4.33521 29.4792 4.40291 29.3345C4.42141 29.3378 4.43817 29.3445 4.45731 29.3468ZM3.66394 31.0045C3.66379 31.0046 3.66365 31.0048 3.6635 31.005C3.63562 31.0547 3.60508 31.0998 3.57882 31.1523C3.62895 30.9426 3.71367 30.9454 3.77499 30.7624C3.83615 30.5793 3.84744 30.4537 4.0131 30.3515C4.00194 30.4131 3.99505 30.4818 3.98551 30.5462C3.83146 30.7747 3.83677 30.8581 3.78233 31.0737C3.74279 31.0506 3.70348 31.0276 3.66394 31.0045ZM18.6879 6.40167C18.6184 6.42742 18.5878 6.35592 18.5826 6.35281C18.5827 6.3528 18.5828 6.35279 18.583 6.35278C18.1448 6.20173 18.6497 6.35174 18.2591 6.15994C18.3234 6.17542 18.3869 6.18978 18.4507 6.20487C18.5297 6.26996 18.6102 6.33943 18.6879 6.40167ZM10.5642 16.3632C10.5485 16.3605 10.5324 16.3586 10.5167 16.3559C10.6307 16.1207 10.6041 16.0347 10.7461 15.8613C10.6856 16.0287 10.625 16.196 10.5644 16.3633C10.5643 16.3633 10.5642 16.3632 10.5642 16.3632ZM5.11691 28.2008C5.02066 28.4757 4.9415 28.6754 4.78136 28.9078C4.78122 28.908 4.78107 28.9081 4.78092 28.9083C4.77153 28.9216 4.7753 28.8377 4.75908 28.8532C4.7391 28.9073 4.72067 28.9641 4.70127 29.0191C4.67462 29.0153 4.64813 29.0112 4.62161 29.0075C4.69745 28.8626 4.77332 28.7177 4.84941 28.5722C4.82552 28.5878 4.80149 28.6039 4.7776 28.6194C4.82954 28.4901 4.88129 28.3613 4.93323 28.2319C4.95095 28.2937 4.96873 28.3553 4.98685 28.4165C5.03024 28.3447 5.07339 28.2726 5.11691 28.2008ZM12.5608 12.4927C12.5261 12.5273 12.5367 12.4382 12.4934 12.4968C12.4502 12.5554 12.4227 12.6879 12.3929 12.6399C12.4279 12.5501 12.4641 12.4556 12.4996 12.364C12.2887 12.6134 12.2253 12.931 12.1278 12.8907C12.2808 12.6283 12.3747 12.3976 12.4724 12.1199C12.543 12.1663 12.4844 12.4623 12.6337 12.3285C12.6096 12.3827 12.5846 12.4397 12.5609 12.492C12.5608 12.4923 12.5608 12.4925 12.5608 12.4927ZM3.76662 39.7421C3.78067 39.9208 3.86128 40.3247 3.8386 40.555C3.833 40.6117 3.6995 40.8137 3.67901 40.8151C3.60976 40.8176 3.57465 40.5936 3.55753 40.8397C3.54778 40.7587 3.53619 40.6803 3.52574 40.6C3.48128 40.6197 3.43693 40.6393 3.39255 40.6584C3.41071 40.7556 3.42892 40.8529 3.44724 40.9501C3.43252 40.9566 3.41776 40.9632 3.40305 40.9697C3.3624 40.6175 3.32728 40.8322 3.25145 40.6557C3.24296 40.8272 3.23475 40.9999 3.2262 41.1708C3.21851 41.0736 3.20795 40.9591 3.20218 40.8733C3.12269 40.8708 3.16465 41.0723 3.15415 41.1089C3.09477 41.3149 3.02151 40.3093 2.89834 40.2405C2.90401 40.4018 2.91087 40.5709 2.9171 40.7359C2.8977 40.6906 2.87822 40.6447 2.85882 40.5994C2.89483 40.2195 2.87501 39.8004 2.87441 39.3626C2.86671 39.324 2.8589 39.2852 2.85142 39.2471C2.81742 39.2626 2.78349 39.2774 2.74949 39.2929C2.73858 39.2345 2.72762 39.1753 2.71671 39.1168C2.85288 39.2772 2.82375 39.0369 2.86145 38.7384C2.92 38.8882 2.91704 39.0816 2.99167 39.0597C2.87239 38.5362 2.88408 37.9058 2.75889 37.3977C2.72789 37.2715 2.62972 37.2832 2.60431 36.9811C2.61628 36.9901 2.63597 36.9896 2.65091 36.9946C2.54426 36.4793 2.47997 36.1667 2.46599 35.6201C2.43427 35.6554 2.40234 35.6902 2.37061 35.7255C2.40134 35.8383 2.43237 35.9513 2.46303 36.0635C2.41368 36.1483 2.37474 36.0358 2.41459 36.3784C2.44719 36.6591 2.4538 36.489 2.47981 36.5634C2.51523 36.664 2.47923 36.7601 2.51832 36.8683C2.54837 36.9519 2.58582 36.8534 2.59931 37.079C2.52667 36.996 2.4518 36.9114 2.37832 36.8278C2.38609 36.7715 2.39413 36.7156 2.40205 36.6592C2.42504 36.7126 2.44771 36.7651 2.4707 36.8185C2.41848 36.6272 2.36919 36.4464 2.31513 36.2486C2.41271 36.3038 2.3551 36.0995 2.33152 35.9877C2.29472 35.8135 2.37398 35.9573 2.35043 35.843C2.32673 35.7288 2.24322 35.6123 2.23414 35.402C2.28704 35.5092 2.30557 35.353 2.34595 35.3781C2.38633 35.4033 2.41979 35.623 2.4359 35.4064C2.35854 35.0024 2.26825 35.4608 2.21389 35.1881C2.14859 34.8606 2.36932 34.7557 2.42998 34.8485C2.47773 34.9216 2.50047 35.1894 2.54813 35.2631C2.56327 34.7772 2.42487 34.7888 2.38852 34.7102C2.3352 34.595 2.34972 34.5538 2.37719 34.5233L2.4014 34.5569C2.40126 34.5564 2.40112 34.556 2.40099 34.5555L2.36317 34.537L2.38104 34.5005C2.43903 34.484 2.50832 34.4997 2.54593 34.286C2.58781 34.313 2.62573 34.3366 2.66579 34.3627C2.68352 34.3036 2.68986 34.2618 2.71467 34.1919C2.53535 34.3483 2.61457 34.1887 2.65317 34.1058C2.71392 33.9753 2.57717 34.1569 2.58235 34.1172C2.5966 34.0103 2.67887 33.8692 2.5982 33.9416C2.63503 33.9094 2.67351 33.8739 2.71071 33.8405C2.75976 33.6777 2.74077 33.2322 2.61896 33.5907C2.56451 33.5265 2.64942 33.4318 2.70023 33.3507C2.75101 33.2696 2.70611 33.2506 2.74965 33.1787C2.92304 32.8931 2.90648 33.1253 2.94336 33.2007C3.08849 32.7842 2.87951 33.1606 3.12013 32.5753C3.09781 32.4974 2.92256 32.7378 2.99779 32.5045C3.10057 32.5031 3.23665 32.3691 3.41243 32.0659C3.40753 32.0262 3.40242 31.9865 3.39752 31.9468C3.55563 31.8103 3.59476 31.9362 3.64837 31.5718C3.74457 31.8259 3.68686 31.6551 3.89255 31.4026C3.93422 31.3513 3.90801 31.5027 3.96453 31.4303C3.9901 31.3974 4.00423 31.2952 4.06758 31.2154C4.09864 31.1765 4.26259 31.0033 4.29669 30.8463C4.16248 30.9104 4.21594 30.6067 4.037 30.8048C4.25446 30.3855 4.3534 30.0671 4.24584 30.6007C4.32248 30.5042 4.39906 30.4077 4.47557 30.3112C4.49057 30.226 4.50603 30.1403 4.52143 30.0546C4.59707 30.076 4.61138 30.0968 4.73843 29.793C4.69452 29.9301 4.65114 30.0667 4.60712 30.2044C4.61926 30.2154 4.62555 30.2404 4.64135 30.2425C4.68877 30.0708 4.88664 29.6176 4.91871 29.5004C4.95079 29.3831 4.84762 29.5903 4.8441 29.5505C4.8163 29.2203 4.91696 29.2925 4.97868 29.0937C5.01478 28.977 4.87584 29.231 4.89681 29.1694C4.97484 28.9408 5.10152 28.8771 5.19275 28.6848C5.11558 28.7322 5.03797 28.7787 4.96115 28.8242C5.05817 28.6231 5.16405 28.3978 5.23752 28.2031C5.26639 28.1266 5.20674 28.1667 5.21013 28.1536C5.22658 28.0884 5.32216 27.8365 5.33407 27.8107C5.42453 27.6167 5.4736 27.6329 5.5643 27.4457C5.53363 27.5215 5.50463 27.5927 5.47459 27.6668C5.53456 27.7349 5.59423 27.8037 5.65434 27.8719C5.74622 27.6898 5.83803 27.5076 5.93017 27.3249C5.84168 27.4485 5.75307 27.5726 5.66458 27.6962C5.70268 27.4562 5.74064 27.2161 5.7786 26.976C5.86754 26.8833 5.95627 26.7911 6.04521 26.6984C6.17531 26.3946 5.9953 26.3838 6.19471 26.3041C6.22473 26.2107 6.25477 26.1172 6.28493 26.0238C6.29801 26.0453 6.31119 26.0667 6.32427 26.0881C6.36235 25.9763 6.40048 25.8646 6.43842 25.7528C6.31891 25.8331 6.19692 25.9096 6.07989 25.9898C6.16318 25.7737 6.22207 25.7964 6.2509 25.7718C6.32731 25.7067 6.35333 25.5187 6.41898 25.4692C6.44135 25.4526 6.38295 25.6752 6.45929 25.6248C6.47414 25.6149 6.76171 25.4148 6.80693 25.2224C6.77656 25.2122 6.73488 25.2092 6.7002 25.2017C6.79291 24.9579 6.99958 24.9082 7.02714 24.9591C7.05634 24.8198 7.1397 24.6352 7.10564 24.5879C7.13452 24.5232 7.16322 24.4591 7.1921 24.3944C7.27316 24.5138 7.37775 24.2367 7.28937 24.174C7.23543 24.2831 7.18131 24.3922 7.12738 24.5012C7.04797 24.3625 6.81988 24.6639 7.25545 24.0186C7.37935 23.9142 7.1363 24.2514 7.23319 24.1645C7.34824 23.9885 7.40858 23.801 7.53531 23.6419C7.69321 23.4439 7.61637 23.7424 7.79126 23.1909C7.08423 24.257 7.74939 22.9798 7.94822 22.4167C8.18618 22.3477 8.4523 21.9182 8.69495 21.2687C8.61747 21.312 8.54954 21.5202 8.48099 21.6265C8.41245 21.7327 8.44201 21.5969 8.35396 21.7279C8.26589 21.8591 8.0956 22.1454 7.99548 22.2729C8.02561 22.1393 8.24268 21.5116 8.13309 21.9425C8.31779 21.669 8.43049 21.5527 8.61045 21.1908C8.58848 21.0469 8.53907 21.0336 8.70387 20.6759C8.70695 20.9345 8.96737 20.5622 9.03077 20.7007C8.88791 20.9422 8.85186 20.753 8.73448 20.8764C8.72257 20.8891 8.63791 21.1368 8.61045 21.1908C8.81356 20.9959 8.88622 20.9296 8.927 21.1271C8.99617 20.9543 9.05885 20.8561 9.01387 20.8163C9.05291 20.7918 9.09206 20.7672 9.13084 20.7432C9.15589 20.6882 9.17686 20.6379 9.20444 20.5801C9.08835 20.6232 9.20929 20.4909 9.22515 20.3641C9.24098 20.2372 9.10971 20.3559 9.25042 20.053C9.18482 20.1452 9.12587 20.23 9.06279 20.3194C9.13383 20.1149 9.20502 19.9096 9.27605 19.7051C9.16386 19.8196 8.95352 20.0831 8.89406 20.0454C8.95998 19.9667 9.06203 19.6392 9.07607 19.6047C9.13064 19.4713 9.13727 19.561 9.14287 19.5516C9.25814 19.3558 9.32353 19.1806 9.42039 19.1311C9.46516 18.9643 9.53505 18.8555 9.60991 18.6914C9.65112 18.6012 9.59854 18.5979 9.63158 18.5492C9.85141 18.2259 9.75293 18.5858 9.95929 17.8602C9.89016 17.9274 9.82082 17.9932 9.7514 18.0602C9.77538 17.9786 9.79908 17.8974 9.82305 17.8157C9.85252 17.7674 9.88183 17.7195 9.9113 17.6712C9.97785 17.7036 10.0444 17.7364 10.111 17.7689C10.1408 17.7147 10.1706 17.6602 10.2004 17.606C10.1622 17.705 10.1238 17.8042 10.0855 17.9033C10.0932 17.9175 10.1012 17.9312 10.1089 17.9455C10.1938 17.8116 10.2787 17.6782 10.3638 17.5443C10.3418 17.5307 10.3195 17.517 10.2975 17.5033C10.4802 17.1973 10.5036 17.1989 10.5821 16.8636C10.6929 16.6288 10.6849 16.3917 10.7074 16.2366C10.7433 16.1939 10.7794 16.1513 10.8156 16.1081C10.8108 16.0678 10.8062 16.0272 10.8014 15.9868C10.8574 15.9375 10.9138 15.8874 10.9696 15.838C10.9245 15.7749 10.9137 15.748 10.7791 15.9796C10.7417 15.8612 10.9743 15.4515 11.0809 15.2903C11.1618 15.168 11.1572 15.3435 11.1726 15.3307C11.2246 15.2881 11.3032 15.0609 11.3288 15.0175C11.437 14.8336 11.4969 14.6973 11.5922 14.5302C11.6109 14.4977 11.6954 14.422 11.7004 14.4145C11.7365 14.3553 11.8283 14.2102 11.837 14.1929C12.2904 13.3023 11.6633 14.1872 12.0753 13.3546C12.0405 13.369 12.0068 13.3815 11.9722 13.3953C12.0005 13.3311 12.0292 13.2663 12.0575 13.2021C12.1145 13.1305 12.1039 13.2444 12.1505 13.0712C12.1741 13.0949 12.1976 13.1186 12.2207 13.1428C12.2379 13.066 12.2541 12.9918 12.2721 12.9134C12.423 12.8477 12.6364 12.45 12.7385 12.5332C12.7733 12.5614 12.6783 12.8697 12.7919 12.7365C12.8583 12.6161 12.7719 12.6782 12.7932 12.6264C12.9473 12.2522 13.0033 12.3043 13.0557 12.1465C13.0385 12.1097 13.0212 12.0714 13.004 12.034C13.0387 11.9815 13.0735 11.9287 13.1084 11.8757C13.0956 11.8536 13.083 11.831 13.0702 11.809C13.044 11.8616 13.0147 11.9208 12.9906 11.969C12.9489 11.8666 13.2082 11.2265 13.1594 11.494C13.1395 11.6029 13.0455 11.7755 13.1849 11.7039C13.2506 11.5309 13.3266 11.3353 13.3964 11.1535C13.4176 11.1567 13.4387 11.1604 13.46 11.1637C13.5588 10.9209 13.3832 11.1016 13.3433 11.0824C13.3676 11.0276 13.3922 10.9724 13.4165 10.9176C13.4453 10.9031 13.4745 10.8901 13.5034 10.8742C13.4756 10.8585 13.4227 10.7968 13.5232 10.6468C13.5881 10.5504 13.5842 10.7482 13.6669 10.5452C13.615 10.539 13.5267 10.585 13.6155 10.3574C13.6727 10.3575 13.7299 10.3473 13.7872 10.3534C13.8705 10.0578 14.0015 9.96675 14.0998 9.61997C14.1623 9.40001 14.1755 9.06486 14.4188 9.01769C14.4935 8.87039 14.4261 8.8967 14.4367 8.84769C14.4863 8.61637 14.645 8.50132 14.6683 8.46477C14.8168 8.23178 14.8391 8.10657 14.9743 7.92337C14.9356 7.91861 14.901 7.9097 14.8641 7.90314C14.8278 8.11195 14.7815 8.20466 14.6492 8.45939C14.6832 8.36911 14.717 8.27872 14.7511 8.18844C14.7171 8.18993 14.6832 8.19128 14.6497 8.19229C14.3812 9.04605 14.2992 8.7792 14.5772 8.08823C14.6549 8.05376 14.7334 8.01711 14.8109 7.98325C14.9165 7.55834 15.0685 7.40629 15.2903 6.97365C15.3166 6.92218 15.3767 6.71802 15.4136 6.63544C15.4128 6.63672 15.4119 6.63799 15.4111 6.63926C15.3873 6.56601 15.3331 6.62476 15.2866 6.61306C15.302 6.56617 15.3175 6.51927 15.3329 6.47238C15.4118 6.38845 15.4221 6.43578 15.5057 6.23708C15.461 6.24825 15.4165 6.25908 15.3719 6.27025C15.4708 6.05597 15.5714 5.93252 15.6493 5.72646C15.6458 5.76562 15.6427 5.80438 15.6393 5.84354C15.8731 5.42515 15.902 5.85869 15.9604 5.4872C15.9669 5.48399 15.9734 5.48081 15.9799 5.47765L15.9903 5.45629L16.0109 5.46638C16.0206 5.4862 16.0301 5.50599 16.0399 5.52583C16.0242 5.51903 16.0084 5.51222 15.9927 5.50542L16.0189 5.49591C15.9667 5.61686 15.9144 5.73777 15.8624 5.85824C15.8846 5.87196 15.9066 5.88585 15.9291 5.89902C15.98 5.77473 16.031 5.64987 16.0819 5.5254L15.9632 5.56845C15.9864 5.57794 16.0095 5.58743 16.0327 5.59691C16.0085 5.58972 15.9842 5.5825 15.96 5.57529L16.0888 5.5286C16.0624 5.61716 16.036 5.70594 16.0097 5.79434C16.054 5.71416 16.0983 5.63397 16.1426 5.55378L15.9348 5.62911C16.0165 5.67426 16.0982 5.71942 16.1799 5.76456C16.0428 5.5952 16.2779 5.69231 16.2746 5.58659C16.5373 5.79622 16.7259 5.99877 17.2127 6.15337C17.3093 6.18396 17.2878 6.10111 17.5119 6.29457C17.4939 6.1703 17.8381 6.27699 17.8389 6.16717C17.747 6.12949 17.6525 6.08863 17.5629 6.05321C17.6474 6.13097 17.6235 6.22492 17.4608 6.18001C17.2532 6.12263 17.0006 5.93158 16.9673 6.03268C16.8927 5.99229 16.8226 5.95626 16.7499 5.91761C16.7916 5.90821 16.8329 5.89836 16.8741 5.88871C16.6447 5.82675 16.5171 5.75231 16.4432 5.64475C16.7023 5.74917 16.9607 5.85348 17.2197 5.95804C17.1844 5.93656 17.1486 5.91481 17.1132 5.89346C17.3331 5.92179 17.1629 5.77154 17.5259 5.9254C17.5106 5.95235 17.4957 5.97953 17.4804 6.00662C17.6453 5.99259 18.0007 6.15939 17.9275 6.02026C18.0226 6.09695 18.0367 6.12391 18.1192 6.10598C18.372 6.30394 18.5153 6.47177 18.3682 6.5233C18.4809 6.55664 18.5936 6.58998 18.7057 6.62306C18.6575 6.56761 18.6092 6.51226 18.561 6.45681C18.7433 6.54415 18.9269 6.63208 19.1087 6.71902C19.0888 6.80708 18.745 6.57839 18.8183 6.6997C18.8329 6.72402 18.9458 6.73942 18.9679 6.7596C19.2 6.9746 18.8011 6.71106 18.8502 6.81561C19.2472 7.02655 18.8693 6.98638 19.4736 7.15425C19.4776 7.18423 19.4825 7.21519 19.4854 7.24451C19.6792 7.33687 19.6878 7.27742 19.8596 7.34577C19.9671 7.38862 20.0557 7.54153 20.2004 7.53335C20.2264 7.53152 20.0843 7.32876 20.4906 7.52489C20.806 7.6771 20.6371 7.69432 20.7954 7.80253C20.9539 7.91077 21.3976 7.98487 21.4551 8.16313C21.373 8.10465 21.2627 8.04222 21.1692 7.98207C21.1174 7.98728 21.0667 7.99273 21.0154 7.99805C21.2581 8.07351 21.4765 8.22057 21.657 8.23472C21.9199 8.4652 22.2984 8.54256 22.2529 8.39992C22.146 8.36743 22.2346 8.4618 22.1085 8.36908C22.1051 8.33921 22.1009 8.3091 22.0975 8.27923C22.2257 8.34109 22.333 8.39189 22.3813 8.42859L22.4178 8.44647L22.4006 8.4817C22.3699 8.52211 22.349 8.52129 22.3398 8.45704C22.321 8.49298 22.3023 8.52856 22.2834 8.56449C22.3315 8.59502 22.3801 8.62488 22.4283 8.65541C22.4135 8.70195 22.3986 8.74865 22.3839 8.7952C22.3498 8.83869 22.3156 8.88223 22.2811 8.92621C22.2312 8.822 22.2814 8.70778 22.0612 9.0604C22.0887 9.07458 22.1158 9.08923 22.1432 9.10342C21.9613 9.39971 21.8896 9.37626 21.7083 9.77035C21.7522 9.42346 22.0016 9.33911 21.8062 9.24902C21.8543 9.17937 21.903 9.10919 21.9512 9.03954C21.9283 9.01481 21.9053 8.99016 21.8822 8.96597C21.7071 9.37905 21.5774 10.1406 21.3269 10.3548C21.3266 10.3947 21.3242 10.4339 21.3247 10.4748C21.1257 10.7064 21.2389 10.8996 21.0163 11.1248C20.9931 11.1479 20.8635 11.0162 20.7046 11.3706C20.7291 11.3713 20.7655 11.3828 20.7946 11.3878C20.7465 11.4581 20.6979 11.5277 20.6498 11.5973C20.6622 11.6198 20.6743 11.643 20.6868 11.6656C20.7549 11.5391 20.823 11.413 20.8911 11.2866C20.847 11.3975 20.8027 11.5092 20.7586 11.6201C20.8553 11.4937 20.8854 11.4304 20.895 11.5383C20.8407 11.6619 20.7866 11.7858 20.7324 11.9094C20.7391 11.9279 20.7461 11.9464 20.7528 11.9649C20.8182 11.9233 20.883 11.8808 20.9489 11.8395C20.7692 12.1435 20.638 12.4195 20.4495 12.6293C20.4175 12.6651 20.4373 12.4948 20.3488 12.7994C20.3208 12.7916 20.2961 12.7893 20.2698 12.783C20.18 13.1646 20.1049 13.2686 19.8828 13.6063C20.0416 13.3946 19.9117 13.589 19.9101 13.661C19.9091 13.7105 19.9811 13.5494 19.9916 13.5764C20.002 13.6033 19.981 13.8465 20.0732 13.6733C20.1208 13.1651 20.3627 13.1338 20.5494 12.5397C20.5292 12.6351 20.5088 12.7312 20.4887 12.8267C20.5212 12.7925 20.5506 12.762 20.5856 12.725C20.4092 13.0225 20.4999 12.8802 20.464 13.0195C20.4281 13.159 20.3394 13.4017 20.273 13.561C20.252 13.6112 20.2413 13.5429 20.1861 13.6524C20.1485 13.727 20.1036 13.9579 20.0202 13.9771C19.9658 13.9897 20.0116 13.6064 19.797 14.0656C19.7176 14.1338 19.8327 13.9193 19.8302 13.9124C19.8025 13.8507 19.6356 14.1166 19.61 14.2636C19.6081 14.2756 19.6924 14.1895 19.6542 14.3082C19.5637 14.5898 19.4504 14.724 19.3138 14.8698C19.3709 14.9192 19.3448 15.1797 19.1902 15.4467C19.2024 15.4698 19.2151 15.4923 19.2274 15.5154C19.2376 15.4675 19.248 15.4197 19.2583 15.3718C19.2921 15.3302 19.3241 15.2842 19.3596 15.2447C19.2447 15.5323 19.3169 15.6143 19.2873 15.7641C19.1856 16.2766 19.0761 15.886 19.0736 15.7838C19.1183 15.7319 19.164 15.6828 19.2093 15.6319C19.1833 15.6277 19.157 15.6236 19.1312 15.6188C18.81 16.307 18.9334 15.654 18.7274 15.9832C18.7981 16.1258 18.689 16.3873 18.4647 16.6805C18.4483 16.7169 18.4314 16.7533 18.4152 16.7898C18.4289 16.8035 18.454 16.8151 18.4603 16.8301C18.2953 17.2325 18.0888 17.2214 18.0549 17.251C17.9045 17.3823 17.9452 17.5584 17.9232 17.6076C17.8306 17.8148 17.7578 17.8536 17.6855 18.0582C17.6079 18.2784 17.7096 18.1506 17.7104 18.229C17.7108 18.2918 17.6375 18.4598 17.6308 18.5403C17.6228 18.5033 17.6167 18.4635 17.6086 18.4266C17.4783 18.6315 17.3673 18.7968 17.2446 19.0413C17.2654 19.3918 16.8983 19.5099 17.151 19.5105C17.2749 19.2826 17.3599 19.1625 17.4715 19.0617C17.4062 19.2188 17.3407 19.376 17.2754 19.5331C17.2316 19.5674 17.1945 19.5889 17.1464 19.6312C17.141 19.7689 16.9954 20.026 16.9606 20.1374C16.7976 20.659 16.9511 20.5459 16.6029 20.9288C16.7404 20.5997 16.6728 20.5687 16.8319 20.253C16.7515 20.2996 16.6853 20.4669 16.6769 20.3347C16.5463 20.6509 16.6446 20.5749 16.6339 20.7168C16.6246 20.8392 16.5289 21.0495 16.5856 21.0616C16.5475 21.0699 16.5125 21.0737 16.4744 21.0819C16.3808 21.2826 16.287 21.4831 16.1935 21.6838C16.2041 21.5846 16.2146 21.4853 16.2254 21.3862C16.1841 21.4456 16.1427 21.5051 16.1014 21.5645C15.962 22.1006 15.3965 22.8728 15.6897 22.8444C15.5857 23.0856 15.543 23.1019 15.4391 23.2109C15.4498 23.2333 15.4578 23.2539 15.4706 23.2773C15.3805 23.4222 15.3909 23.5706 15.3105 23.698C15.2303 23.8254 15.1528 23.8301 15.2475 23.8984C15.1766 23.9722 15.1111 24.0477 15.0426 24.1219C15.0416 24.1855 15.0404 24.249 15.0395 24.312C14.9887 24.3884 14.9378 24.465 14.887 24.5415C14.916 24.6086 14.7434 24.9218 14.7101 25.0799C14.5933 25.1902 14.4267 25.1077 14.308 25.44C14.3536 25.4513 14.399 25.4627 14.4446 25.474C14.4018 25.5428 14.3589 25.6118 14.3158 25.6812C14.3002 25.6792 14.2848 25.6766 14.2691 25.6746C14.2907 25.6393 14.3121 25.6045 14.3339 25.5693C14.2957 25.5908 14.258 25.6118 14.22 25.6328C14.2021 25.76 14.1842 25.8874 14.1661 26.0151C14.2624 25.8766 14.3588 25.7379 14.4552 25.5993C14.3974 25.8028 14.3052 25.9201 14.2625 26.1005C14.1379 26.2165 14.1294 26.1482 14.094 26.0608C14.0745 26.1165 14.0545 26.1727 14.035 26.2283C13.9888 26.164 13.9095 26.2364 14.0599 25.9281C14.0321 25.9411 14.0049 25.955 13.9766 25.9671C13.9556 26.0194 13.925 26.0454 13.9057 26.1045C13.8533 26.2657 13.9085 26.4339 13.9519 26.4415C13.9747 26.4453 14.0064 26.277 14.0321 26.2964C14.0948 26.3438 13.9023 26.6738 14.2047 26.2095C14.1718 26.3952 14.1212 26.4164 14.0232 26.5923C14.0531 26.589 14.0826 26.5859 14.1122 26.5831C14.062 26.6624 14.0119 26.7419 13.9617 26.8213C13.8975 26.6483 13.5617 27.2495 13.7195 26.6407C13.6368 26.8037 13.5542 26.9661 13.4714 27.1284C13.4751 27.0887 13.4789 27.0491 13.4826 27.0094C13.5239 26.9379 13.5649 26.8668 13.6061 26.7952C13.5428 26.8724 13.4794 26.9498 13.4161 27.027C13.3469 27.2472 13.3515 27.3483 13.3597 27.4677C13.5109 27.2446 13.4216 27.2988 13.4991 27.1061C13.5293 27.1282 13.564 27.1339 13.5913 27.1667C13.4769 27.2315 13.3789 27.5716 13.3479 27.6467C13.2536 27.8749 13.2678 27.668 13.1965 27.8168C13.1251 27.9658 13.0828 28.1611 12.9584 28.2519C12.9971 28.2673 13.0407 28.2758 13.0791 28.2831C12.9825 28.5218 12.9597 28.4545 12.9427 28.4759C12.6679 28.8163 12.6502 29.0625 12.454 29.5072C12.4918 29.4568 12.5288 29.4052 12.5661 29.3539C12.4908 29.7233 12.5709 29.4882 12.7323 29.2123C12.5978 29.4788 12.5935 29.6654 12.5245 29.8656C12.4555 30.0658 12.2675 30.3764 12.1843 30.4832C12.2684 30.1892 12.4354 29.9077 12.5653 29.5984C12.5108 29.615 12.4626 29.6334 12.4038 29.6493C12.3979 29.8716 12.294 29.9534 12.2549 30.0093C12.14 30.1732 12.2117 30.2 12.0868 30.2731C12.1145 30.2807 12.1375 30.2876 12.1634 30.2944C11.9802 30.6582 11.7488 31.0349 11.7309 31.3192C11.6593 31.3123 11.5923 31.3012 11.5178 31.2971C11.491 31.4749 11.3811 31.5865 11.3303 31.7231C11.2799 31.8591 11.3529 31.8325 11.2999 31.9954C11.2901 32.0256 11.2313 32.0704 11.2214 32.1513C11.2113 32.2329 11.2603 32.5743 11.0961 32.5355C11.0336 32.6673 10.9696 32.7897 10.9066 32.9178C10.9571 32.7878 11.0079 32.6579 11.0582 32.5285C10.9717 32.6189 10.8856 32.7087 10.7991 32.7992C10.825 32.828 10.8515 32.8572 10.8772 32.8853C10.7812 33.1931 10.6301 33.3783 10.5059 33.6763C10.4852 33.7261 10.603 33.6409 10.4854 33.8497C10.3678 34.0585 10.1733 34.1634 10.0469 34.5537C10.0405 34.5735 10.0808 34.7255 9.95577 34.828C9.92737 34.8513 9.96534 34.7149 9.91422 34.7751C9.86307 34.8353 9.70341 35.1362 9.64727 35.1393C9.66469 35.1435 9.69015 35.1319 9.71067 35.1302C9.69366 35.1863 9.67639 35.243 9.65897 35.2997C9.62869 35.2915 9.59818 35.2837 9.56803 35.2756C9.49159 35.6086 9.52463 35.8146 9.27975 36.2465C9.37936 36.1395 9.47915 36.0324 9.5785 35.9259C9.56611 35.8781 9.55356 35.83 9.54092 35.7827C9.64896 35.5814 9.7572 35.3796 9.86524 35.1783C9.84866 35.1291 9.83189 35.0806 9.81531 35.0314C9.84517 34.9786 9.87464 34.9262 9.9045 34.8734C9.92157 34.8981 9.93846 34.9228 9.95527 34.9481C10.0003 34.8369 10.0452 34.7255 10.09 34.6148C10.1257 34.8995 9.79102 35.2231 9.92025 35.2489C9.87945 35.2892 9.8385 35.3296 9.79756 35.3698C9.84377 35.4175 9.78121 35.5091 9.69058 35.6797C9.737 35.6526 9.785 35.6212 9.83016 35.5976C9.71158 35.7492 9.57437 36.0524 9.47701 36.2213C9.43425 36.2955 9.4296 36.1992 9.41406 36.22C9.33389 36.3261 9.29963 36.5846 9.27195 36.6291C9.10668 36.8951 8.8862 37.0151 8.83121 37.3642C9.00162 37.0571 8.91158 37.2254 9.01376 37.1356C9.04577 37.1075 9.26987 36.7126 9.01534 37.2193C9.0043 37.2411 8.92548 37.3756 8.83393 37.5196L8.82633 37.5351L8.81344 37.5433C8.55052 37.6712 8.24099 37.8036 8.39204 37.6448C8.2668 37.7572 8.17389 37.8531 8.06112 37.9591C7.63555 37.9903 7.85052 38.0825 8.00004 38.1128C7.94922 38.1467 7.90123 38.1796 7.84864 38.2141C7.89841 38.0464 7.32521 38.4147 7.16333 38.5893C7.10901 38.6476 7.30983 38.5589 7.16954 38.6715C7.09393 38.7117 7.00744 38.7563 6.92728 38.7984C7.07571 38.7863 6.87648 38.9502 6.91937 39.0089C6.7468 39.0449 6.56663 38.9991 6.6011 38.8875C6.50439 38.9871 6.40706 39.087 6.31044 39.1867C6.37249 39.1666 6.43514 39.1458 6.49719 39.1257C6.10197 39.3308 5.68306 39.7304 5.52188 39.6537C5.47343 39.6869 5.42438 39.7202 5.37592 39.7534C5.37491 39.7849 5.37443 39.8161 5.37341 39.8476C5.1392 39.9748 4.9054 40.1015 4.67119 40.2287C4.86002 40.0855 4.88692 40.0239 5.11052 39.9126C5.01437 39.9403 4.91666 39.9689 4.82203 39.9956C4.55386 40.2673 4.5401 40.3391 4.05731 40.628C4.03548 40.6411 3.6438 40.8184 3.62808 40.8209C3.55611 40.8326 3.61673 40.7409 3.5837 40.7446C3.49174 40.7545 3.01561 40.9406 3.01492 40.9219C3.0093 40.6908 4.41389 39.7645 4.78862 39.5062C6.01479 38.6608 7.24569 37.8415 8.47895 37.0343L8.28231 37.2615C9.64321 34.3674 11.0438 31.5165 12.3895 28.6016C12.4096 28.5578 12.3745 28.5646 12.382 28.5454C12.4295 28.4267 12.5236 28.3323 12.5453 28.2903C12.5915 28.2006 12.5302 28.2332 12.5613 28.1665C12.8844 27.4772 13.211 26.837 13.5274 26.1439C13.548 26.0987 13.5567 26.1588 13.5883 26.0774C13.6045 26.0352 13.6178 25.886 13.6601 25.7937C13.808 25.4714 13.949 25.2086 14.1068 24.8696C14.1931 24.6841 14.327 24.4081 14.4232 24.2006C14.4657 24.109 14.4891 24.0037 14.5307 23.913C14.5897 23.7843 14.6205 23.8306 14.6324 23.8121C14.6846 23.731 14.643 23.6969 14.6826 23.6152C14.7564 23.4634 14.7917 23.4699 14.8798 23.2746C14.9427 23.1351 15.0663 22.806 15.1408 22.6278C15.3687 22.236 15.5952 21.714 15.7616 21.3269C15.8601 21.0977 15.914 21.0975 15.9569 21.0053C16.1079 20.6805 16.1667 20.4079 16.3074 20.1024C16.4943 19.6968 16.6992 19.3559 16.8852 18.9654C16.9153 18.902 16.8681 18.8977 16.8962 18.8349C17.0004 18.6024 17.1311 18.3039 17.233 18.101C17.3465 17.8749 17.4447 17.8179 17.5376 17.5882C17.5648 17.5208 17.5224 17.4774 17.5673 17.3642C17.6392 17.1835 17.7748 17.0118 17.8373 16.8914C17.9228 16.7263 17.8019 16.8481 17.9151 16.6245C17.9198 16.6153 17.9731 16.5989 17.9942 16.5493C18.0555 16.405 18.0194 16.4053 18.1194 16.1989C18.1291 16.1791 18.2937 15.9204 18.3066 15.8931C18.3826 15.7322 18.5469 15.4137 18.5839 15.3147C18.7164 14.9612 18.5345 15.2032 18.7925 14.9705C18.8223 14.8288 18.8512 14.688 18.8854 14.5391C18.8703 14.6421 19.0809 14.2938 19.0904 14.2669C19.1697 14.0443 19.0628 14.1489 19.197 13.8824C19.1401 14.2907 19.3743 13.5405 19.4451 13.3819C19.7858 12.6181 20.1354 11.9424 20.4909 11.1808C20.6098 10.9259 20.7463 10.5735 20.8731 10.3041C20.9025 10.2413 20.9063 10.3009 20.9327 10.2459C20.9589 10.1909 20.9011 10.2384 20.9321 10.1762C21.1256 9.78904 21.3243 9.5078 21.4234 9.11658C21.4415 9.10377 21.4492 9.10801 21.4736 9.08419C21.53 8.84409 21.7369 8.49088 21.8849 8.24042L22.14 8.9443C22.0539 8.89345 21.9799 8.84957 21.9269 8.8212C21.6026 8.64788 21.4981 8.64985 21.2604 8.52837C20.9461 8.36762 20.5045 8.06166 20.6558 8.29645C20.4347 8.19811 20.2231 8.10054 20.0076 7.98445C19.9836 7.9715 20.0166 7.94525 20.007 7.93993C19.9469 7.9058 19.9122 7.9269 19.8693 7.90856C19.7531 7.85881 19.957 7.90951 19.7891 7.84342C19.7005 7.80865 19.6391 7.81249 19.3999 7.70126C18.2298 7.15672 16.9823 6.56592 15.7655 5.99091L16.5044 5.72306C16.3709 6.00552 16.2383 6.28632 16.1073 6.56412C16.0595 6.66538 16.1238 6.61411 16.0622 6.74028C15.8482 7.17861 15.4226 7.94329 15.252 8.32776C15.0814 8.71221 15.1699 8.6489 15.0787 8.89673C15.0611 8.94461 15.0512 8.89397 15.0313 8.93543C14.8977 9.21431 14.6985 9.5281 14.5858 9.75197C14.5113 9.89999 14.5603 9.90826 14.5147 10.0138C14.4466 10.171 14.3281 10.3102 14.288 10.3923C14.0998 10.7784 14.0099 11.0624 13.8219 11.4174C13.8381 11.4076 13.8513 11.4024 13.8664 11.3947C13.6635 11.8242 13.461 12.2532 13.2581 12.6826C13.2763 12.6664 13.2943 12.6509 13.3127 12.6348C13.0717 13.1373 13.0042 13.0355 13.2245 13.0845C13.2143 13.1245 13.2043 13.1672 13.1943 13.2053C13.0982 13.143 12.8801 13.4131 12.6722 13.7894C12.6569 13.817 12.6676 14.0551 12.559 13.9789C12.5646 14.0423 12.5707 14.0814 12.5764 14.1355C12.5021 14.2009 12.4277 14.2676 12.3535 14.3331C12.3381 14.38 12.3222 14.4274 12.3068 14.4743C12.3269 14.4917 12.3533 14.4979 12.3695 14.5229C12.2766 14.7306 12.0501 15.1398 11.9769 15.304C11.7951 15.7119 11.6652 16.1531 11.4502 16.436C11.3854 16.5925 11.5021 16.4616 11.3898 16.6868C11.3546 16.7018 11.3212 16.7157 11.2849 16.7314C11.3008 16.9659 11.2199 16.9755 11.0789 17.2206C10.9835 17.3864 10.9558 17.5113 10.874 17.6734C10.8532 17.7144 10.8258 17.6944 10.8134 17.7233C10.7719 17.8203 10.6861 18.1121 10.6557 18.18C10.381 18.7956 10.1309 19.3179 9.84776 19.8942C9.8174 19.9562 9.88514 19.8891 9.85361 19.9532C9.80295 20.0563 9.78574 19.9737 9.75529 20.0329C9.67061 20.1982 9.71836 20.2221 9.61116 20.4578C9.25815 21.2339 8.80643 22.1048 8.42574 22.91C8.41395 22.9352 8.44298 22.947 8.43044 22.9745C8.34825 23.1538 8.22536 23.3167 8.14989 23.4791C8.02455 23.7484 7.96972 23.9693 7.8452 24.2351C7.60197 24.7546 7.36439 25.2093 7.11325 25.7431C6.90763 26.18 6.73369 26.5617 6.50917 27.0412C5.52852 29.1357 4.61832 31.3153 3.58375 33.402C3.55737 33.4551 3.54257 33.4215 3.53599 33.4384C3.474 33.5991 3.50126 33.6288 3.40465 33.6511C3.32582 33.8559 3.34967 33.9433 3.23384 34.181C3.17214 34.3077 3.13437 34.1739 3.07581 34.4097C3.03124 34.5893 3.128 34.4793 2.9689 34.7755L2.67603 33.9676C2.67632 33.9678 2.6766 33.9679 2.67689 33.9681L2.97704 34.1021L3.02305 34.4493C3.02669 34.5114 3.03016 34.5899 3.03362 34.6899C3.03415 34.7068 2.98859 34.796 3.01806 34.9266C3.04746 35.0579 3.06928 34.8995 3.11777 35.218C3.2315 35.9657 3.29273 36.9215 3.40732 37.7927C3.41451 37.8473 3.50427 38.3708 3.52975 38.4733C3.57917 38.6715 3.61526 38.6248 3.65522 38.8851C3.68606 39.0862 3.6588 39.2582 3.69524 39.4946C3.69953 39.5221 3.75251 39.563 3.76662 39.7421ZM22.4819 8.65663C22.5035 8.72153 22.6225 8.87607 22.4476 9.12547C22.431 9.14912 22.3881 8.95957 22.3007 9.10163C22.3581 8.94943 22.4213 8.80466 22.4817 8.65656C22.4817 8.65658 22.4818 8.65661 22.4819 8.65663ZM2.81683 41.1599C2.79993 40.9358 2.78287 40.711 2.76596 40.487C2.80441 40.6385 2.84283 40.7903 2.88136 40.9412C2.85989 41.0143 2.8383 41.0868 2.81683 41.1599ZM11.1936 15.1059C11.1935 15.1061 11.1934 15.1063 11.1933 15.1065C11.2731 14.8832 11.3529 14.6599 11.4326 14.4366C11.437 14.4661 11.4414 14.4956 11.4458 14.525C11.3903 14.7048 11.3348 14.8846 11.2796 15.0638C11.2509 15.0778 11.2222 15.0919 11.1936 15.1059ZM10.5613 16.8684C10.4797 16.9966 10.4655 16.9492 10.4012 17.0107C10.4013 17.0107 10.4013 17.0108 10.4014 17.0108C10.3845 17.0271 10.3347 17.1163 10.3169 17.1514C10.3418 17.147 10.3682 17.1387 10.3934 17.1331C10.2897 17.4727 9.83743 18.0202 10.1498 17.1836C10.1678 17.2067 10.1859 17.2292 10.2039 17.2523C10.3847 16.8486 10.6449 16.4259 10.5613 16.8684ZM21.0426 11.91C20.9599 12.2882 20.9249 12.4055 20.6778 12.7956C20.6833 12.7267 20.6888 12.6578 20.6943 12.589C20.7487 12.5309 20.8027 12.4733 20.8571 12.4152C20.8572 12.4151 20.8573 12.4149 20.8574 12.4147C20.8403 12.39 20.8232 12.3652 20.8059 12.3411C20.8847 12.1976 20.9638 12.0535 21.0426 11.91ZM4.38014 29.934C4.18109 29.9571 4.28373 29.9716 4.37629 29.683C4.40831 29.5831 4.3383 29.6623 4.36124 29.6016C4.48483 29.2734 4.60017 29.2965 4.62094 29.3924C4.54075 29.5733 4.45936 29.756 4.38042 29.9335C4.38033 29.9337 4.38023 29.9339 4.38014 29.934ZM2.75481 38.5941C2.75484 38.5944 2.75486 38.5946 2.75489 38.5948C2.7146 38.6085 2.68745 38.4698 2.66638 38.6322C2.65277 38.512 2.63935 38.3918 2.62567 38.2711C2.63358 38.306 2.64139 38.3418 2.64929 38.3768C2.6599 38.3439 2.67069 38.3109 2.6813 38.278C2.62891 38.2408 2.65198 38.1979 2.65341 38.0699C2.60667 38.1106 2.55986 38.1511 2.51312 38.1918C2.51144 38.0434 2.50975 37.8945 2.50806 37.7461C2.52065 37.7428 2.53324 37.7395 2.54583 37.7362C2.52315 37.6828 2.50036 37.63 2.47769 37.5766C2.49124 37.5598 2.50471 37.5436 2.51825 37.5268C2.49905 37.4614 2.47985 37.3959 2.46049 37.3306C2.49514 37.306 2.52796 37.4512 2.48873 37.1917C2.53581 37.2673 2.58277 37.3427 2.62993 37.4189C2.67165 37.8106 2.71324 38.2024 2.75481 38.5941ZM5.49157 27.4348C5.31418 27.8308 5.34153 27.7087 5.30761 27.5819C5.36884 27.5331 5.43034 27.4836 5.49157 27.4348ZM15.032 7.22091C15.0332 7.0825 15.0351 6.94385 15.0394 6.80356C15.119 6.55755 15.3229 6.36956 15.2783 6.56183C15.2246 6.79322 15.0717 6.98961 15.032 7.22091ZM19.5714 6.97172C19.2984 6.8145 19.5949 6.87768 19.676 6.87155C19.7275 6.96642 19.8395 7.01261 20.0125 7.10179C19.8454 7.02816 19.6165 6.99782 19.5714 6.97188C19.5714 6.97183 19.5714 6.97177 19.5714 6.97172ZM12.8326 11.769C12.7809 11.8837 12.7424 12.0039 12.677 12.0975C12.6415 12.0434 12.7823 11.8608 12.6401 11.972C12.673 11.8985 12.7059 11.825 12.7383 11.752C12.7474 11.8123 12.7993 11.7612 12.8323 11.7693C12.8324 11.7692 12.8325 11.7691 12.8326 11.769ZM7.21416 23.5998C7.37784 23.4039 7.3724 23.3496 7.43687 23.1052C7.49981 23.096 7.45469 23.4023 7.3937 23.5788C7.33397 23.5856 7.27415 23.5925 7.21416 23.5998ZM9.35675 36.8706C9.32059 36.7883 9.49793 36.3884 9.60813 36.2001C9.60626 36.2277 9.60447 36.2556 9.60273 36.2833C9.52085 36.4788 9.43863 36.6751 9.35675 36.8706ZM20.0944 7.14515C20.0658 7.12956 20.0385 7.11515 20.0125 7.10179C20.0422 7.11485 20.07 7.12914 20.0944 7.14515ZM17.8475 17.9763C17.8336 17.8556 17.6839 18.125 17.8647 17.7974C17.8647 17.7974 17.8646 17.7974 17.8646 17.7974C17.9841 17.5807 18.0112 17.5332 18.1126 17.3281C18.1519 17.4375 17.9818 17.8702 18.2682 17.298C18.2718 17.2904 18.2205 17.285 18.2699 17.1952C18.2851 17.1676 18.3642 17.0931 18.4398 16.959C18.4642 16.9156 18.6334 16.5831 18.4187 17.0438C18.4768 17.0543 18.5176 17.1035 18.5683 17.1259C18.4989 17.3124 18.3329 17.4031 18.2465 17.5944C18.1183 17.8785 18.1536 18.0701 17.9938 18.0615C18.0718 17.8087 18.2617 17.4007 18.3674 17.3854C18.4758 17.1563 18.4404 17.0593 18.321 17.2291C17.9916 18.0417 18.1209 17.4009 17.8488 18.12C17.8637 18.137 17.8704 18.175 17.8901 18.1788C17.7251 18.36 17.8526 18.0194 17.8475 17.9763ZM18.7664 16.3848C18.7418 16.5403 18.7177 16.6955 18.6935 16.8506C18.6291 16.8204 18.6066 16.7181 18.6713 16.4852C18.703 16.452 18.7349 16.4181 18.7664 16.3848ZM13.3905 27.919C13.4163 27.9551 13.4238 28.0227 13.4392 28.0767C13.3901 28.1045 12.9002 29.0778 13.1061 28.5624C13.136 28.4875 13.4059 28.0718 13.3905 27.919ZM6.54046 25.1772C6.6183 25.072 6.69597 24.9672 6.77356 24.8626C6.70516 25.0476 6.63709 25.2329 6.56898 25.418C6.55956 25.3376 6.54988 25.2576 6.54046 25.1772ZM16.1304 5.46494C16.0819 5.44066 16.2674 5.46878 16.0705 5.3859C16.2291 5.42254 16.3763 5.45964 16.5307 5.49658C16.5622 5.5391 16.5942 5.58174 16.6258 5.62426C16.6655 5.62503 16.7058 5.62618 16.7456 5.62694C16.7103 5.65089 16.6776 5.67509 16.641 5.69909C16.4369 5.5169 16.3448 5.57211 16.1304 5.46494ZM12.8066 12.4756C12.7145 12.4846 12.8324 12.1209 12.6627 12.4535C12.6453 12.3672 12.6687 12.2525 12.757 12.0527C12.79 12.0294 12.8228 12.0061 12.8558 11.9828C12.8094 11.9557 12.8152 11.8964 12.8326 11.769C12.8327 11.769 12.8328 11.7689 12.8329 11.7688C12.9701 11.4664 12.9779 11.4919 13.0915 11.4569C12.8975 11.7543 12.9659 11.7979 12.9076 12.0352C12.8677 12.1982 12.7631 12.3865 12.8066 12.4756ZM13.8815 26.8674C13.837 27.1211 13.9884 26.9456 13.7368 27.3149C13.7333 27.2819 13.7301 27.2488 13.7267 27.2158C13.7781 27.0996 13.8298 26.9835 13.8815 26.8674ZM12.0394 13.4713C12.1631 13.4978 12.3492 13.3264 12.1845 13.2053C12.0509 13.3946 12.201 13.3418 12.0394 13.4713ZM19.3927 7.10115C18.9978 6.91004 19.1319 6.81918 19.3247 6.83261C19.3391 6.86732 19.3536 6.90207 19.3676 6.93638C19.4421 6.95855 19.5166 6.98069 19.591 7.00299C19.5249 7.03567 19.4587 7.06847 19.3927 7.10115ZM8.88476 20.5334C8.9471 20.1925 8.68706 20.8404 8.73653 20.605C8.77598 20.4171 8.96073 20.2315 8.97158 20.3394C8.94555 20.3987 8.91599 20.4645 8.88503 20.5328C8.88494 20.533 8.88485 20.5332 8.88476 20.5334ZM9.68405 18.7656C9.57554 18.7756 9.63399 18.7154 9.53708 18.9625C9.50938 19.033 9.22268 19.5624 9.4002 19.3669C9.49121 19.1724 9.5886 18.9674 9.68405 18.7656ZM21.7038 10.1442C21.665 10.1305 21.7797 9.67317 21.8252 9.6289C21.8252 9.62887 21.8251 9.62884 21.8251 9.62882C21.9485 9.50957 21.7496 9.95545 21.9155 9.7993C21.6497 10.1927 21.7525 10.3956 21.5526 10.266C21.6603 10.0114 21.6489 10.1505 21.7038 10.1442ZM4.69426 40.2574C4.69408 40.2575 4.6939 40.2576 4.69372 40.2577C4.72075 40.2423 4.96778 40.1518 4.95319 40.1863C4.68602 40.3406 4.71016 40.2774 4.50627 40.4892C4.48163 40.4803 4.45922 40.4707 4.43349 40.4624C4.52174 40.3895 4.56062 40.3339 4.69426 40.2574ZM12.8167 28.9506C12.8549 28.8436 12.9826 28.6754 13.0349 28.5575C13.0154 29.0013 12.6637 29.378 12.8167 28.9506ZM2.36058 34.3203C2.36066 34.32 2.36074 34.3197 2.36082 34.3194C2.36086 34.3195 2.36089 34.3197 2.36093 34.3198C2.36081 34.32 2.3607 34.3201 2.36058 34.3203ZM16.6253 21.0517C16.609 21.0602 16.5969 21.0636 16.588 21.0627C16.5872 21.0624 16.5865 21.0621 16.5858 21.0617C16.5985 21.059 16.6116 21.0558 16.6253 21.0517ZM21.3074 11.0207C21.1739 11.1711 21.3639 10.5509 21.4715 10.3719C21.489 10.3961 21.5094 10.4082 21.5222 10.4515C21.39 10.5748 21.3297 10.9957 21.3074 11.0207ZM13.8489 9.84009C14.0655 9.3809 13.9898 10.0749 13.8152 10.0233C13.8125 10.0209 13.8437 9.8521 13.8489 9.84009ZM21.2839 7.84652C21.1378 7.85355 21.3656 7.98013 20.9941 7.7933C20.9797 7.76704 20.9653 7.74073 20.9509 7.71446C21.0619 7.7585 21.173 7.80249 21.2839 7.84652ZM15.5265 6.95315C15.7629 6.35828 15.9611 5.77632 15.6141 6.07351C15.5991 6.11988 15.5836 6.16677 15.5686 6.21313C15.6487 6.25864 15.5277 6.39902 15.4143 6.63435C15.4316 6.68353 15.3778 6.81831 15.3944 6.85607C15.4263 6.92907 15.535 6.79615 15.5265 6.95315ZM3.95902 31.3241C3.94917 31.3081 3.93916 31.2923 3.92946 31.2764C3.95625 31.1774 3.98324 31.0782 4.01004 30.9791C4.03037 31.0067 4.05069 31.0342 4.07103 31.0618C4.03374 31.1492 3.99666 31.2362 3.95937 31.3235C3.95925 31.3237 3.95914 31.3239 3.95902 31.3241ZM18.8547 15.7387C18.9865 15.8644 19.0436 15.6672 19.139 15.2576C19.0443 15.4177 18.9494 15.5786 18.8547 15.7387ZM11.1119 16.2236C11.0619 16.2149 11.0121 16.206 10.9618 16.1978C10.9154 16.4173 10.9835 16.4044 11.0866 16.3371C11.0952 16.299 11.1034 16.2616 11.1119 16.2236ZM9.79739 19.0825C9.84505 19.0047 9.7896 19.0298 9.79434 19.0216C9.91037 18.8227 9.9405 18.8011 10.0328 18.5336C10.0379 18.498 10.0424 18.4626 10.0473 18.4269C9.89914 18.5012 9.90983 18.6104 9.73849 18.8342C9.79144 18.8042 9.84434 18.7744 9.89743 18.7444C9.82582 18.8799 9.75457 19.0149 9.68296 19.1503C9.68511 19.1714 9.68715 19.1924 9.6893 19.2135C9.72503 19.1701 9.76305 19.1258 9.79739 19.0825ZM3.42341 32.3637C3.35667 32.4968 3.2895 32.6304 3.22276 32.7636C3.24337 32.7792 3.26423 32.7947 3.28484 32.8104C3.33096 32.6617 3.37729 32.5124 3.42341 32.3637ZM17.6308 18.5403C17.6339 18.5548 17.6372 18.569 17.6412 18.5822C17.6315 18.5765 17.629 18.5611 17.6308 18.5403ZM4.28982 40.3571C4.13905 40.435 3.94216 40.5783 3.78539 40.6769C3.83242 40.722 4.21604 40.4488 4.37527 40.3902C4.3912 40.3661 4.35354 40.3241 4.28982 40.3571ZM18.8454 6.83891C18.7936 6.84964 18.7419 6.86026 18.6907 6.87125C18.5995 6.82482 18.5082 6.77812 18.4165 6.73143C18.4027 6.75363 18.389 6.77605 18.3752 6.79825C18.8 6.95978 18.6736 6.98322 18.8456 7.14507C18.8453 7.04296 18.8456 6.94116 18.8454 6.83891ZM2.84824 36.8428C2.79357 36.5196 2.74781 36.4079 2.69154 36.6001C2.72241 36.7129 2.75338 36.8263 2.78425 36.9391C2.80555 36.9068 2.82687 36.8745 2.84824 36.8428ZM15.0512 23.9155C14.9614 24.176 14.8649 24.1358 14.8043 24.4031C14.8825 24.2814 14.9608 24.1598 15.0388 24.0386C15.0428 23.9979 15.0472 23.9562 15.0512 23.9155ZM20.4853 11.6247C20.4034 11.7139 20.4682 11.9828 20.2151 12.2231C20.2167 12.3093 20.229 12.3687 20.2346 12.4447C20.1815 12.4626 20.1257 12.4851 20.0736 12.5015C20.0735 12.5017 20.0734 12.5019 20.0733 12.5021C19.9608 12.7748 20.0878 12.6233 20.1239 12.6475C20.1388 12.6579 20.0191 12.8434 20.0832 12.7979C20.1935 12.7192 20.3457 12.3037 20.4197 12.337C20.33 12.466 20.2219 12.7494 20.3089 12.6913C20.4043 12.6277 20.4349 12.3273 20.5565 12.1838C20.3287 12.3644 20.5927 11.8948 20.7089 11.8816C20.7731 11.5637 20.6221 11.8129 20.4884 12.1071C20.5028 11.896 20.4171 12.1765 20.3393 12.1929C20.3908 11.9924 20.7156 11.3737 20.4853 11.6247ZM14.4268 9.37672C14.5146 9.17727 14.6984 8.88745 14.7033 8.72501C14.7061 8.6304 14.5351 8.92713 14.5814 8.68902C14.4967 8.88374 14.497 8.93738 14.5592 8.9264C14.5443 8.97285 14.5291 9.01979 14.514 9.06617C14.4954 9.08217 14.4767 9.09875 14.4581 9.11474C14.4666 9.14677 14.4748 9.17886 14.4836 9.21034C14.458 9.25512 14.4322 9.30044 14.4065 9.34515C14.4136 9.35515 14.4177 9.36842 14.4268 9.37672ZM11.7207 31.0413C11.7458 30.9863 11.7707 30.9318 11.7956 30.8766C11.7814 30.8773 11.7661 30.879 11.7512 30.8804C11.7396 30.8811 11.728 30.8817 11.7164 30.8823C11.7644 30.866 11.9415 30.6307 11.9576 30.5042C11.9657 30.4406 11.844 30.537 11.9426 30.2975C11.8664 30.4689 11.8014 30.6302 11.7295 30.7977C11.7178 30.7741 11.7055 30.7511 11.6937 30.7275C11.6937 30.7276 11.6936 30.7277 11.6935 30.7278C11.6637 30.7806 11.6333 30.834 11.6035 30.8868C11.6425 30.9385 11.6817 30.9897 11.7207 31.0413ZM11.2749 16.1041C11.3256 15.9 11.3359 15.8285 11.2352 15.889C11.2351 15.8892 11.235 15.8893 11.2349 15.8895C11.2286 15.9714 11.2223 16.0534 11.216 16.1352C11.2356 16.125 11.2551 16.1148 11.2749 16.1041ZM16.6817 20.0585C16.7212 20.5613 17.0017 19.6018 16.8452 19.7363C16.8381 19.7423 16.724 20.0329 16.6817 20.0585ZM19.4333 7.20463C19.3233 7.15543 19.2133 7.10594 19.1028 7.05648C19.115 7.09597 19.1279 7.13565 19.1402 7.17515C19.2378 7.185 19.3357 7.19478 19.4333 7.20463ZM2.79834 35.414C2.85179 35.2803 2.83937 34.9542 2.74748 34.8047C2.74834 34.8887 2.7492 34.9727 2.75006 35.0566C2.72362 34.9007 2.69653 34.7467 2.67042 34.5896C2.57491 34.592 2.65061 34.7679 2.65594 35.045C2.65659 35.0879 2.57031 35.3727 2.66949 35.4563C2.68983 35.4731 2.66914 35.183 2.74497 35.3775C2.73908 35.2893 2.72949 35.2137 2.72231 35.1305C2.74414 35.122 2.766 35.1134 2.78776 35.1042C2.79135 35.2077 2.79476 35.3105 2.79834 35.414ZM14.9576 8.22457C15.0892 7.95571 15.0704 7.90612 15.036 7.82121C14.9839 7.95049 14.9317 8.07977 14.8796 8.20906C14.9057 8.21394 14.9314 8.21962 14.9576 8.22457ZM3.42492 33.0664C3.50431 32.9227 3.42503 32.963 3.44356 32.8989C3.51377 32.6565 3.62124 32.5191 3.70338 32.2857C3.70602 32.3049 3.7086 32.3227 3.71121 32.3413C3.7113 32.3411 3.71139 32.3409 3.71148 32.3407C4.24736 31.3042 3.87546 31.8063 3.59808 32.4468C3.57273 32.453 3.54764 32.4586 3.52244 32.4648C3.42232 32.7627 3.33129 33.038 3.42492 33.0664ZM18.3257 16.5247C18.3085 16.5313 18.2832 16.3946 18.2275 16.603C18.2632 16.8053 18.327 16.5307 18.3974 16.4874C18.3833 16.5442 18.3684 16.6022 18.3546 16.6585C18.5304 16.3613 18.5263 16.304 18.395 16.3809C18.386 16.3865 18.3428 16.518 18.3257 16.5247ZM17.3157 18.5459C17.4533 18.6624 17.5663 18.2364 17.5107 18.2277C17.4834 18.2811 17.4903 18.3357 17.4516 18.3877C17.4126 18.4403 17.3688 18.4379 17.3157 18.5459ZM21.2075 8.20848C21.2187 8.21457 21.3033 8.33492 21.3161 8.27769C21.2305 8.08801 20.9053 8.03216 20.9357 8.0985C21.032 8.14099 21.1042 8.15231 21.2074 8.20865C21.2074 8.20859 21.2075 8.20854 21.2075 8.20848ZM3.06365 37.3706C3.06779 37.364 3.06076 37.0442 3.02897 37.0065C2.99458 36.9763 2.95995 36.9633 2.92545 36.9417C2.97471 37.1127 2.9928 37.4682 3.06358 37.3699C3.0636 37.3701 3.06363 37.3703 3.06365 37.3706Z" fill="black"/>
</svg>
